<svg xmlns="http://www.w3.org/2000/svg" viewBox="0 0 200.99 150.5"><defs><style>.cls-1{fill:none;}.cls-2{fill:#1b3164;}.cls-3{fill:#90b9f7;}.cls-4{fill:#33a0ba;}</style></defs><title>gb-logo</title><g id="Layer_2" data-name="Layer 2"><g id="Layer_1-2" data-name="Layer 1"><path class="cls-1" d="M76,50.5a24.81,24.81,0,0,1-.5,5c-.12.59-.26,1.18-.43,1.76A25,25,0,0,1,54,75.32a24.41,24.41,0,0,1-3,.18A25,25,0,0,1,26.68,56.27,24.37,24.37,0,0,1,26,50.5a25,25,0,1,1,50,0Z"/><path class="cls-1" d="M76,50.5a24.81,24.81,0,0,1-.5,5v2l-.43-.25A25,25,0,0,1,54,75.32a24.41,24.41,0,0,1-3,.18A25,25,0,0,1,26.68,56.27,24.37,24.37,0,0,1,26,50.5a25,25,0,1,1,50,0Z"/><path class="cls-1" d="M101,50a49.83,49.83,0,0,1-.5,7.06V42.94A49.83,49.83,0,0,1,101,50Z"/><path class="cls-1" d="M54,75.32a24.41,24.41,0,0,1-3,.18,24.73,24.73,0,0,1-4-.32A24.41,24.41,0,0,1,50,75,24.73,24.73,0,0,1,54,75.32Z"/><path class="cls-1" d="M25.5,95v5H25A24.81,24.81,0,0,1,25.5,95Z"/><path class="cls-1" d="M26.68,56.27A25,25,0,0,0,51,75.5a24.41,24.41,0,0,0,3-.18,25,25,0,0,0,21.1-18.08"/><path class="cls-1" d="M25.5,95v5H25A24.81,24.81,0,0,1,25.5,95Z"/><path class="cls-1" d="M25.93,93.26c-.17.58-.31,1.17-.43,1.76V93Z"/><path class="cls-1" d="M176,100.5a25,25,0,0,1-25,25h-.5A23.64,23.64,0,0,1,146,125a25,25,0,1,1,29.19-30.75c.11.42.21.84.29,1.27A23.64,23.64,0,0,1,176,100C176,100.17,176,100.33,176,100.5Z"/><path class="cls-1" d="M176,100.5a25,25,0,0,1-25,25h-.5A23.64,23.64,0,0,1,146,125a25,25,0,1,1,29.19-30.75l.29-.17v1.44A23.64,23.64,0,0,1,176,100C176,100.17,176,100.33,176,100.5Z"/><path class="cls-1" d="M126.73,56a50,50,0,0,1,48.41.49c.14-.5.26-1,.36-1.52A25,25,0,0,0,151,25h-.5"/><path class="cls-1" d="M126.79,94.25a25,25,0,0,1,48.42,0"/><path class="cls-1" d="M176,50a24.81,24.81,0,0,1-.5,5V56.7l-.36-.2A50,50,0,0,0,126.73,56q-.62.33-1.23.69V25H151A25,25,0,0,1,176,50Z"/><path class="cls-2" d="M75.5,0V6.42A49.66,49.66,0,0,0,51,0Z"/><path class="cls-2" d="M201,50h-.49v50a50,50,0,0,0-25-43.3V55A25,25,0,0,0,151,25H125.5V0h25V.51h.5A50,50,0,0,1,201,50Z"/><path class="cls-2" d="M25.5,93v2a24.81,24.81,0,0,0-.5,5H.5V50H1A50,50,0,0,0,25.5,93Z"/><path class="cls-1" d="M175.5,95.52A23.64,23.64,0,0,1,176,100h-.49Z"/><path class="cls-1" d="M76,50.5a24.81,24.81,0,0,1-.5,5v-10A24.81,24.81,0,0,1,76,50.5Z"/><path class="cls-3" d="M75.5,0V6.42A49.66,49.66,0,0,0,51,0h-.5a50,50,0,0,0-25,93l.43.25a50,50,0,0,0,48.39,1A24.37,24.37,0,0,1,75,100a25,25,0,0,1-50,0H.5V93.44A50,50,0,0,0,93.58,125,49.66,49.66,0,0,0,100,100.5c0-.17,0-.33,0-.5h.51V0Zm0,55.48v2l-.43-.25A25,25,0,0,1,54,75.32a24.41,24.41,0,0,1-3,.18A25,25,0,0,1,26.68,56.27,24.37,24.37,0,0,1,26,50.5a25,25,0,1,1,49.5,5Z"/><path class="cls-2" d="M150.5,150H57.06a50,50,0,0,0,36.52-25H107.2A50,50,0,0,0,150.5,150Z"/><path class="cls-1" d="M150.5,125v.49A23.64,23.64,0,0,1,146,125Z"/><path class="cls-4" d="M194.19,75.69a50,50,0,0,0-18.69-19l-.36-.2A50,50,0,0,0,126.73,56q-.62.33-1.23.69V0h-25V42.94a50.09,50.09,0,0,1,0,14.12V100a50,50,0,1,0,93.69-24.31ZM151,125.5h-.5A23.64,23.64,0,0,1,146,125a25,25,0,1,1,29.19-30.75l.29-.17v1.44A23.64,23.64,0,0,1,176,100c0,.17,0,.33,0,.5A25,25,0,0,1,151,125.5Z"/></g></g></svg>