<svg xmlns="http://www.w3.org/2000/svg" xmlns:xlink="http://www.w3.org/1999/xlink" viewBox="0 0 496.86 496.86"><defs><style>.cls-1{fill:none;}.cls-2,.cls-24{fill:#fff;}.cls-3{fill:#1b3164;}.cls-4{fill:#cdcdf7;}.cls-5{fill:#8181e2;}.cls-6{fill:#acacdd;}.cls-7{fill:#c0c6ff;}.cls-8{clip-path:url(#clip-path);}.cls-9{fill:#3c3592;}.cls-10{fill:#48ede7;}.cls-11{clip-path:url(#clip-path-2);}.cls-12{clip-path:url(#clip-path-3);}.cls-13{fill:#e3e3fc;}.cls-14{fill:#a5afef;}.cls-15{clip-path:url(#clip-path-4);}.cls-16{clip-path:url(#clip-path-5);}.cls-17{clip-path:url(#clip-path-6);}.cls-18{fill:#90b9f7;}.cls-19{clip-path:url(#clip-path-7);}.cls-20{clip-path:url(#clip-path-8);}.cls-21{clip-path:url(#clip-path-9);}.cls-22{fill:#424284;}.cls-23{fill:#28287f;}.cls-24{opacity:0.61;isolation:isolate;}.cls-25{fill:#6262cc;}.cls-26{fill:#9494f7;}.cls-27{fill:#777ce0;}.cls-28{fill:#4f4f99;}.cls-29{fill:#1a1a59;}.cls-30{clip-path:url(#clip-path-10);}</style><clipPath id="clip-path"><path class="cls-1" d="M357.23,95.68c0-7.51,5.33-10.59,11.85-6.83s11.84,13,11.84,20.48-5.33,10.58-11.84,6.83S357.23,103.19,357.23,95.68Z"/></clipPath><clipPath id="clip-path-2"><path class="cls-1" d="M357.23,149.29c0-7.51,5.33-10.58,11.85-6.83s11.84,13,11.84,20.49-5.33,10.58-11.84,6.82S357.23,156.8,357.23,149.29Z"/></clipPath><clipPath id="clip-path-3"><path class="cls-1" d="M357.23,200.31c0-7.51,5.33-10.58,11.85-6.83s11.84,13,11.84,20.49-5.33,10.58-11.84,6.82S357.23,207.82,357.23,200.31Z"/></clipPath><clipPath id="clip-path-4"><path class="cls-1" d="M294,143.5c0-7.51,5.33-10.58,11.84-6.83s11.85,13,11.85,20.49-5.33,10.58-11.85,6.82S294,151,294,143.5Z"/></clipPath><clipPath id="clip-path-5"><path class="cls-1" d="M294,197.11c0-7.51,5.33-10.58,11.84-6.82s11.85,13,11.85,20.48-5.33,10.58-11.85,6.83S294,204.62,294,197.11Z"/></clipPath><clipPath id="clip-path-6"><path class="cls-1" d="M294,248.14c0-7.51,5.33-10.59,11.84-6.83s11.85,13,11.85,20.48-5.33,10.58-11.85,6.83S294,255.65,294,248.14Z"/></clipPath><clipPath id="clip-path-7"><path class="cls-1" d="M229.61,232c0-7.51,5.33-10.58,11.85-6.82s11.84,13,11.84,20.48-5.33,10.58-11.84,6.83S229.61,239.48,229.61,232Z"/></clipPath><clipPath id="clip-path-8"><path class="cls-1" d="M229.61,283c0-7.51,5.33-10.58,11.85-6.82s11.84,13,11.84,20.48-5.33,10.58-11.84,6.83S229.61,290.5,229.61,283Z"/></clipPath><clipPath id="clip-path-9"><path class="cls-1" d="M229.61,178.36c0-7.51,5.33-10.58,11.85-6.83s11.84,13,11.84,20.49-5.33,10.58-11.84,6.82S229.61,185.87,229.61,178.36Z"/></clipPath><clipPath id="clip-path-10"><path class="cls-1" d="M146.62,292.64c0-7.51,5.34-10.58,11.85-6.83s11.85,13,11.85,20.48-5.33,10.59-11.85,6.83S146.62,300.15,146.62,292.64Z"/></clipPath></defs><title>Img22</title><g id="Layer_2" data-name="Layer 2"><g id="Layer_1-2" data-name="Layer 1"><rect class="cls-2" width="496.86" height="496.86"/><path class="cls-3" d="M156.57,235.15c6.52,3.75,17.18,3.75,23.7,0s6.52-9.91,0-13.67-17.18-3.75-23.7,0S150.05,231.39,156.57,235.15Z"/><path class="cls-3" d="M53.17,287.78c6.51,3.75,17.18,3.75,23.7,0s6.52-9.91,0-13.67-17.19-3.75-23.7,0S46.65,284,53.17,287.78Z"/><path class="cls-3" d="M423.77,338.85c6.52,3.76,17.19,3.76,23.71,0s6.51-9.9,0-13.66-17.19-3.76-23.71,0S417.26,335.09,423.77,338.85Z"/><path class="cls-3" d="M29.49,350.57c6.52,3.76,17.18,3.76,23.7,0s6.52-9.9,0-13.66-17.18-3.75-23.7,0S23,346.82,29.49,350.57Z"/><path class="cls-3" d="M195.16,412.07c15.08,8.69,39.76,8.69,54.85,0s15.08-22.92,0-31.61-39.77-8.7-54.85,0S180.08,403.37,195.16,412.07Z"/><path class="cls-4" d="M347.14,79.68c.31-17.07,14.28-41.14,33.61-38.6L481.39,97.69l-34,37.23S347.08,82.62,347.14,79.68Z"/><path class="cls-5" d="M326.21,231.61l-.06,3.51a33,33,0,0,0,.56,3.28,6.85,6.85,0,0,0,2.26,3l98.09,56.87a6.62,6.62,0,0,1-2.9-4.35,25.66,25.66,0,0,1,0-5.81Z"/><path class="cls-4" d="M445.05,133.33,347.14,79.68,347,223.9c-.64,6.35-5.07,13.86-10.42,16.94a9.15,9.15,0,0,1-4.88,1.41L424,291.4c0,6.66,4.73,9.38,10.51,6.05S445,285.94,445,279.28a12.39,12.39,0,0,0-.2-2.19Z"/><polygon class="cls-6" points="385.37 102.02 385.37 103.09 432.79 130.44 432.79 129.38 385.37 102.02"/><polygon class="cls-6" points="385.37 105.46 385.37 106.53 432.79 133.88 432.79 132.82 385.37 105.46"/><polygon class="cls-6" points="385.37 108.9 385.37 109.97 432.79 137.32 432.79 136.26 385.37 108.9"/><polygon class="cls-6" points="385.37 112.34 385.37 113.41 432.79 140.76 432.79 139.69 385.37 112.34"/><polygon class="cls-6" points="385.37 115.78 385.37 116.84 432.79 144.2 432.79 143.13 385.37 115.78"/><polygon class="cls-6" points="385.37 119.22 385.37 120.28 432.79 147.64 432.79 146.57 385.37 119.22"/><polygon class="cls-6" points="385.37 122.66 385.37 123.72 400.7 132.59 400.7 131.52 385.37 122.66"/><polygon class="cls-6" points="385.37 95.67 385.37 98.56 403.3 108.92 403.3 106.03 385.37 95.67"/><path class="cls-7" d="M357.23,95.68c0-7.51,5.33-10.59,11.85-6.83s11.84,13,11.84,20.48-5.33,10.58-11.84,6.83S357.23,103.19,357.23,95.68Z"/><path class="cls-6" d="M357.23,95.68c0-7.51,5.33-10.59,11.85-6.83s11.84,13,11.84,20.48-5.33,10.58-11.84,6.83S357.23,103.19,357.23,95.68Z"/><g class="cls-8"><path class="cls-2" d="M369.35,107.15c3,1.76,5.53.32,5.53-3.19a12.25,12.25,0,0,0-5.53-9.56c-3.05-1.75-5.54-.32-5.54,3.19A12.23,12.23,0,0,0,369.35,107.15Z"/><path class="cls-9" d="M371.76,98.94c-.88,1.47-3.94,1.15-6,0a9.88,9.88,0,0,1-2-1.58c.12-3.33,2.55-4.66,5.52-3a12.44,12.44,0,0,1,5.4,8.12l-.52-.27A4.65,4.65,0,0,1,371.76,98.94Z"/><polygon class="cls-2" points="371.62 105.97 371.62 111.04 367.75 108.75 367.75 103.68 371.62 105.97"/><path class="cls-9" d="M360.44,111a7.53,7.53,0,0,1,.7-1.59,4.55,4.55,0,0,1,1.43-1.53,5.29,5.29,0,0,1,3-.6l1.16.16h.2a4.23,4.23,0,0,1,.68.24l3.56,1.94a13.07,13.07,0,0,1,6.83,11.2l.09,3.87-18.38-10A20.09,20.09,0,0,1,360.44,111Z"/></g><polygon class="cls-10" points="388.43 128.31 389.35 131.06 391.41 132.83 389.92 133.45 390.26 136.03 388.42 133.65 386.58 133.48 386.93 131.39 385.44 128.71 387.5 129.79 388.43 128.31"/><polygon class="cls-10" points="396.09 132.72 397.01 135.48 399.07 137.24 397.58 137.87 397.93 140.44 396.08 138.07 394.24 137.9 394.59 135.81 393.1 133.13 395.16 134.21 396.09 132.72"/><polygon class="cls-10" points="403.75 137.13 404.67 139.89 406.73 141.66 405.24 142.28 405.58 144.86 403.74 142.48 401.9 142.31 402.25 140.22 400.76 137.54 402.82 138.62 403.75 137.13"/><polygon class="cls-10" points="411.41 141.55 412.33 144.31 414.39 146.07 412.89 146.69 413.24 149.27 411.4 146.9 409.56 146.72 409.91 144.63 408.42 141.95 410.48 143.03 411.41 141.55"/><polygon class="cls-10" points="419.07 145.96 419.99 148.72 422.05 150.48 420.56 151.11 420.9 153.68 419.06 151.31 417.22 151.14 417.57 149.05 416.08 146.37 418.14 147.45 419.07 145.96"/><polygon class="cls-6" points="385.37 155.63 385.37 156.7 432.79 184.06 432.79 182.99 385.37 155.63"/><polygon class="cls-6" points="385.37 159.07 385.37 160.14 432.79 187.5 432.79 186.43 385.37 159.07"/><polygon class="cls-6" points="385.37 162.51 385.37 163.58 432.79 190.94 432.79 189.87 385.37 162.51"/><polygon class="cls-6" points="385.37 165.95 385.37 167.02 432.79 194.38 432.79 193.31 385.37 165.95"/><polygon class="cls-6" points="385.37 169.39 385.37 170.46 432.79 197.81 432.79 196.75 385.37 169.39"/><polygon class="cls-6" points="385.37 172.83 385.37 173.9 432.79 201.25 432.79 200.19 385.37 172.83"/><polygon class="cls-6" points="385.37 176.27 385.37 177.34 400.7 186.2 400.7 185.14 385.37 176.27"/><polygon class="cls-6" points="385.37 149.28 385.37 152.17 403.3 162.53 403.3 159.65 385.37 149.28"/><path class="cls-7" d="M357.23,149.29c0-7.51,5.33-10.58,11.85-6.83s11.84,13,11.84,20.49-5.33,10.58-11.84,6.82S357.23,156.8,357.23,149.29Z"/><g class="cls-11"><path class="cls-2" d="M369.35,160.77c3,1.75,5.53.31,5.53-3.19a12.25,12.25,0,0,0-5.53-9.57c-3.05-1.75-5.54-.31-5.54,3.19A12.26,12.26,0,0,0,369.35,160.77Z"/><path class="cls-9" d="M371.76,152.55c-.88,1.48-3.94,1.15-6,0a9,9,0,0,1-2-1.58c.12-3.32,2.55-4.66,5.52-3a12.44,12.44,0,0,1,5.4,8.12l-.52-.27A4.66,4.66,0,0,1,371.76,152.55Z"/><polygon class="cls-2" points="371.62 159.58 371.62 164.65 367.75 162.37 367.75 157.29 371.62 159.58"/><path class="cls-9" d="M360.44,164.59a7.76,7.76,0,0,1,.7-1.59,4.55,4.55,0,0,1,1.43-1.53,5.21,5.21,0,0,1,3-.59c.12,0,1.16.16,1.16.16h.2c.23.07.46.15.68.24l3.56,1.94A13.12,13.12,0,0,1,378,174.43l.09,3.87-18.38-10A20.3,20.3,0,0,1,360.44,164.59Z"/></g><polygon class="cls-10" points="388.43 183.38 389.35 186.13 391.41 187.9 389.92 188.52 390.26 191.1 388.42 188.72 386.58 188.55 386.93 186.46 385.44 183.78 387.5 184.86 388.43 183.38"/><polygon class="cls-10" points="396.09 187.79 397.01 190.55 399.07 192.31 397.58 192.94 397.93 195.51 396.08 193.14 394.24 192.97 394.59 190.88 393.1 188.19 395.16 189.28 396.09 187.79"/><polygon class="cls-7" points="403.75 192.21 404.67 194.96 406.73 196.73 405.24 197.35 405.58 199.93 403.74 197.55 401.9 197.38 402.25 195.29 400.76 192.61 402.82 193.69 403.75 192.21"/><polygon class="cls-7" points="411.41 196.62 412.33 199.38 414.39 201.14 412.89 201.76 413.24 204.34 411.4 201.97 409.56 201.8 409.91 199.71 408.42 197.02 410.48 198.11 411.41 196.62"/><polygon class="cls-7" points="419.07 201.03 419.99 203.79 422.05 205.56 420.56 206.18 420.9 208.75 419.06 206.38 417.22 206.21 417.57 204.12 416.08 201.44 418.14 202.52 419.07 201.03"/><polygon class="cls-6" points="385.37 206.66 385.37 207.72 432.79 235.08 432.79 234.01 385.37 206.66"/><polygon class="cls-6" points="385.37 210.09 385.37 211.16 432.79 238.52 432.79 237.45 385.37 210.09"/><polygon class="cls-6" points="385.37 213.53 385.37 214.6 432.79 241.96 432.79 240.89 385.37 213.53"/><polygon class="cls-6" points="385.37 216.97 385.37 218.04 432.79 245.4 432.79 244.33 385.37 216.97"/><polygon class="cls-6" points="385.37 220.41 385.37 221.48 432.79 248.84 432.79 247.77 385.37 220.41"/><polygon class="cls-6" points="385.37 223.85 385.37 224.92 432.79 252.28 432.79 251.21 385.37 223.85"/><polygon class="cls-6" points="385.37 227.29 385.37 228.36 400.7 237.22 400.7 236.16 385.37 227.29"/><polygon class="cls-6" points="385.37 200.31 385.37 203.19 403.3 213.56 403.3 210.67 385.37 200.31"/><path class="cls-7" d="M357.23,200.31c0-7.51,5.33-10.58,11.85-6.83s11.84,13,11.84,20.49-5.33,10.58-11.84,6.82S357.23,207.82,357.23,200.31Z"/><g class="cls-12"><path class="cls-2" d="M369.35,211.79c3,1.75,5.53.32,5.53-3.19a12.25,12.25,0,0,0-5.53-9.56c-3.05-1.76-5.54-.32-5.54,3.18A12.26,12.26,0,0,0,369.35,211.79Z"/><path class="cls-9" d="M371.76,203.58c-.88,1.47-3.94,1.14-6,0a9,9,0,0,1-2-1.58c.12-3.32,2.55-4.66,5.52-2.94a12.4,12.4,0,0,1,5.4,8.11l-.52-.27A4.63,4.63,0,0,1,371.76,203.58Z"/><polygon class="cls-2" points="371.62 210.6 371.62 215.67 367.75 213.39 367.75 208.31 371.62 210.6"/><path class="cls-9" d="M360.44,215.61a7.76,7.76,0,0,1,.7-1.59,4.86,4.86,0,0,1,1.43-1.53,5.21,5.21,0,0,1,3-.59c.12,0,1.16.16,1.16.16h.2c.23.07.46.15.68.24l3.56,1.95a13.07,13.07,0,0,1,6.83,11.2l.09,3.87-18.38-10A20.3,20.3,0,0,1,360.44,215.61Z"/></g><polygon class="cls-10" points="388.43 233.93 389.35 236.69 391.41 238.45 389.92 239.08 390.26 241.65 388.42 239.28 386.58 239.11 386.93 237.02 385.44 234.34 387.5 235.42 388.43 233.93"/><polygon class="cls-10" points="396.09 238.35 397.01 241.1 399.07 242.87 397.58 243.49 397.93 246.07 396.08 243.69 394.24 243.52 394.59 241.43 393.1 238.75 395.16 239.83 396.09 238.35"/><polygon class="cls-10" points="403.75 242.76 404.67 245.52 406.73 247.28 405.24 247.91 405.58 250.48 403.74 248.11 401.9 247.94 402.25 245.85 400.76 243.16 402.82 244.25 403.75 242.76"/><polygon class="cls-7" points="411.41 247.17 412.33 249.93 414.39 251.7 412.89 252.32 413.24 254.9 411.4 252.52 409.56 252.35 409.91 250.26 408.42 247.58 410.48 248.66 411.41 247.17"/><polygon class="cls-7" points="419.07 251.59 419.99 254.35 422.05 256.11 420.56 256.73 420.9 259.31 419.06 256.94 417.22 256.76 417.57 254.68 416.08 251.99 418.14 253.07 419.07 251.59"/><path class="cls-13" d="M284.2,123.58c.31-17.07,14.28-41.14,33.61-38.6l100.64,56.61-34,37.23S284.14,126.52,284.2,123.58Z"/><path class="cls-13" d="M382.11,177.23,284.2,123.58l-.12,144.22c-.63,6.35-5.06,13.86-10.41,16.94a9.15,9.15,0,0,1-4.88,1.41L361,335.3c0,6.66,4.72,9.39,10.51,6.05s10.5-11.5,10.5-18.17a12.38,12.38,0,0,0-.19-2.19Z"/><polygon class="cls-7" points="322.12 149.84 322.12 150.91 369.55 178.27 369.55 177.2 322.12 149.84"/><polygon class="cls-7" points="322.12 153.28 322.12 154.35 369.55 181.71 369.55 180.64 322.12 153.28"/><polygon class="cls-7" points="322.12 156.72 322.12 157.79 369.55 185.15 369.55 184.08 322.12 156.72"/><polygon class="cls-7" points="322.12 160.16 322.12 161.23 369.55 188.59 369.55 187.52 322.12 160.16"/><polygon class="cls-7" points="322.12 163.6 322.12 164.67 369.55 192.03 369.55 190.96 322.12 163.6"/><polygon class="cls-7" points="322.12 167.04 322.12 168.11 369.55 195.47 369.55 194.4 322.12 167.04"/><polygon class="cls-7" points="322.12 170.48 322.12 171.55 337.46 180.41 337.46 179.35 322.12 170.48"/><polygon class="cls-14" points="322.12 143.49 322.12 146.38 340.06 156.74 340.06 153.86 322.12 143.49"/><path class="cls-7" d="M294,143.5c0-7.51,5.33-10.58,11.84-6.83s11.85,13,11.85,20.49-5.33,10.58-11.85,6.82S294,151,294,143.5Z"/><g class="cls-15"><path class="cls-2" d="M306.1,155c3,1.75,5.53.31,5.53-3.19a12.25,12.25,0,0,0-5.53-9.56c-3-1.76-5.53-.32-5.53,3.18A12.25,12.25,0,0,0,306.1,155Z"/><path class="cls-9" d="M308.52,146.76c-.89,1.48-3.95,1.15-6,0a9.88,9.88,0,0,1-2-1.58c.12-3.32,2.55-4.66,5.52-2.94a12.4,12.4,0,0,1,5.4,8.11l-.52-.27A4.63,4.63,0,0,1,308.52,146.76Z"/><polygon class="cls-2" points="308.38 153.79 308.38 158.86 304.51 156.58 304.51 151.5 308.38 153.79"/><path class="cls-9" d="M297.19,158.8a8.39,8.39,0,0,1,.71-1.59,4.55,4.55,0,0,1,1.43-1.53,5.21,5.21,0,0,1,3-.59c.12,0,1.16.16,1.16.16h.19c.23.07.46.15.68.24l3.57,1.94a13.08,13.08,0,0,1,6.82,11.17l.1,3.87-18.38-10A20.89,20.89,0,0,1,297.19,158.8Z"/></g><polygon class="cls-10" points="325.19 176.13 326.11 178.89 328.17 180.65 326.67 181.28 327.02 183.85 325.18 181.48 323.33 181.31 323.69 179.22 322.2 176.53 324.26 177.62 325.19 176.13"/><polygon class="cls-10" points="332.85 180.54 333.76 183.3 335.83 185.07 334.33 185.69 334.68 188.27 332.84 185.89 330.99 185.72 331.35 183.63 329.86 180.95 331.92 182.03 332.85 180.54"/><polygon class="cls-10" points="340.51 184.96 341.43 187.72 343.49 189.48 341.99 190.1 342.34 192.68 340.5 190.31 338.65 190.13 339.01 188.04 337.52 185.36 339.58 186.44 340.51 184.96"/><polygon class="cls-10" points="348.17 189.37 349.08 192.13 351.15 193.89 349.65 194.52 350 197.09 348.16 194.72 346.31 194.55 346.67 192.46 345.18 189.78 347.24 190.86 348.17 189.37"/><polygon class="cls-10" points="355.82 193.79 356.74 196.55 358.81 198.31 357.31 198.93 357.66 201.51 355.82 199.13 353.97 198.96 354.33 196.87 352.84 194.19 354.9 195.27 355.82 193.79"/><polygon class="cls-7" points="322.12 203.46 322.12 204.53 369.55 231.88 369.55 230.81 322.12 203.46"/><polygon class="cls-7" points="322.12 206.9 322.12 207.97 369.55 235.32 369.55 234.25 322.12 206.9"/><polygon class="cls-7" points="322.12 210.34 322.12 211.4 369.55 238.76 369.55 237.69 322.12 210.34"/><polygon class="cls-7" points="322.12 213.78 322.12 214.84 369.55 242.2 369.55 241.13 322.12 213.78"/><polygon class="cls-7" points="322.12 217.22 322.12 218.28 369.55 245.64 369.55 244.57 322.12 217.22"/><polygon class="cls-7" points="322.12 220.66 322.12 221.72 369.55 249.08 369.55 248.01 322.12 220.66"/><polygon class="cls-7" points="322.12 224.09 322.12 225.16 337.46 234.03 337.46 232.96 322.12 224.09"/><polygon class="cls-14" points="322.12 197.11 322.12 200 340.06 210.36 340.06 207.47 322.12 197.11"/><path class="cls-7" d="M294,197.11c0-7.51,5.33-10.58,11.84-6.82s11.85,13,11.85,20.48-5.33,10.58-11.85,6.83S294,204.62,294,197.11Z"/><g class="cls-16"><path class="cls-2" d="M306.1,208.59c3,1.75,5.53.32,5.53-3.19a12.25,12.25,0,0,0-5.53-9.56c-3-1.75-5.53-.32-5.53,3.19A12.25,12.25,0,0,0,306.1,208.59Z"/><path class="cls-9" d="M308.52,200.38c-.89,1.47-3.95,1.15-6,0a9.49,9.49,0,0,1-2-1.57c.12-3.33,2.55-4.66,5.52-2.95a12.44,12.44,0,0,1,5.4,8.12l-.52-.27A4.62,4.62,0,0,1,308.52,200.38Z"/><polygon class="cls-2" points="308.38 207.4 308.38 212.48 304.51 210.19 304.51 205.12 308.38 207.4"/><path class="cls-9" d="M297.19,212.42a8.39,8.39,0,0,1,.71-1.59,4.68,4.68,0,0,1,1.43-1.54,5.29,5.29,0,0,1,3-.59l1.16.16h.19a4.23,4.23,0,0,1,.68.24l3.57,1.94a13.05,13.05,0,0,1,6.82,11.17l.1,3.87-18.38-10A20.79,20.79,0,0,1,297.19,212.42Z"/></g><polygon class="cls-10" points="325.19 231.2 326.11 233.96 328.17 235.72 326.67 236.35 327.02 238.92 325.18 236.55 323.33 236.38 323.69 234.29 322.2 231.6 324.26 232.69 325.19 231.2"/><polygon class="cls-10" points="332.85 235.62 333.76 238.37 335.83 240.14 334.33 240.76 334.68 243.34 332.84 240.96 330.99 240.79 331.35 238.7 329.86 236.02 331.92 237.1 332.85 235.62"/><polygon class="cls-7" points="340.51 240.03 341.43 242.79 343.49 244.55 341.99 245.17 342.34 247.75 340.5 245.38 338.65 245.21 339.01 243.12 337.52 240.43 339.58 241.52 340.51 240.03"/><polygon class="cls-7" points="348.17 244.44 349.08 247.2 351.15 248.97 349.65 249.59 350 252.16 348.16 249.79 346.31 249.62 346.67 247.53 345.18 244.85 347.24 245.93 348.17 244.44"/><polygon class="cls-7" points="355.82 248.86 356.74 251.62 358.81 253.38 357.31 254 357.66 256.58 355.82 254.2 353.97 254.03 354.33 251.94 352.84 249.26 354.9 250.34 355.82 248.86"/><polygon class="cls-7" points="322.12 254.48 322.12 255.55 369.55 282.9 369.55 281.84 322.12 254.48"/><polygon class="cls-7" points="322.12 257.92 322.12 258.99 369.55 286.34 369.55 285.28 322.12 257.92"/><polygon class="cls-7" points="322.12 261.36 322.12 262.43 369.55 289.78 369.55 288.71 322.12 261.36"/><polygon class="cls-7" points="322.12 264.8 322.12 265.87 369.55 293.22 369.55 292.15 322.12 264.8"/><polygon class="cls-7" points="322.12 268.24 322.12 269.3 369.55 296.66 369.55 295.59 322.12 268.24"/><polygon class="cls-7" points="322.12 271.68 322.12 272.74 369.55 300.1 369.55 299.03 322.12 271.68"/><polygon class="cls-7" points="322.12 275.12 322.12 276.18 337.46 285.05 337.46 283.98 322.12 275.12"/><polygon class="cls-14" points="322.12 248.13 322.12 251.02 340.06 261.38 340.06 258.49 322.12 248.13"/><path class="cls-7" d="M294,248.14c0-7.51,5.33-10.59,11.84-6.83s11.85,13,11.85,20.48-5.33,10.58-11.85,6.83S294,255.65,294,248.14Z"/><g class="cls-17"><path class="cls-2" d="M306.1,259.61c3,1.75,5.53.32,5.53-3.19a12.25,12.25,0,0,0-5.53-9.56c-3-1.75-5.53-.32-5.53,3.19A12.25,12.25,0,0,0,306.1,259.61Z"/><path class="cls-9" d="M308.52,251.4c-.89,1.47-3.95,1.15-6,0a9.49,9.49,0,0,1-2-1.57c.12-3.33,2.55-4.66,5.52-3a12.44,12.44,0,0,1,5.4,8.12l-.52-.27A4.62,4.62,0,0,1,308.52,251.4Z"/><polygon class="cls-2" points="308.38 258.42 308.38 263.5 304.51 261.21 304.51 256.14 308.38 258.42"/><path class="cls-9" d="M297.19,263.44a8.39,8.39,0,0,1,.71-1.59,4.68,4.68,0,0,1,1.43-1.54,5.29,5.29,0,0,1,3-.59l1.16.16.19.05a4.23,4.23,0,0,1,.68.24l3.57,1.94a13.05,13.05,0,0,1,6.82,11.17l.1,3.87-18.38-10A21.15,21.15,0,0,1,297.19,263.44Z"/></g><polygon class="cls-10" points="325.19 281.76 326.11 284.51 328.17 286.28 326.67 286.9 327.02 289.48 325.18 287.1 323.33 286.93 323.69 284.84 322.2 282.16 324.26 283.24 325.19 281.76"/><polygon class="cls-10" points="332.85 286.17 333.76 288.93 335.83 290.69 334.33 291.31 334.68 293.89 332.84 291.52 330.99 291.35 331.35 289.26 329.86 286.57 331.92 287.66 332.85 286.17"/><polygon class="cls-10" points="340.51 290.58 341.43 293.34 343.49 295.11 341.99 295.73 342.34 298.31 340.5 295.93 338.65 295.76 339.01 293.67 337.52 290.99 339.58 292.07 340.51 290.58"/><polygon class="cls-7" points="348.17 295 349.08 297.76 351.15 299.52 349.65 300.14 350 302.72 348.16 300.35 346.31 300.18 346.67 298.08 345.18 295.4 347.24 296.49 348.17 295"/><polygon class="cls-7" points="355.82 299.41 356.74 302.17 358.81 303.93 357.31 304.56 357.66 307.13 355.82 304.76 353.97 304.59 354.33 302.5 352.84 299.82 354.9 300.9 355.82 299.41"/><path class="cls-13" d="M221.21,159.51c.31-17.08,14.28-41.14,33.61-38.61l100.64,56.62-34,37.23S221.15,162.45,221.21,159.51Z"/><path class="cls-2" d="M308.53,353.05l-.26.17-87.18-49.49c-.63,6.34-5.06,13.86-10.41,16.94a9.15,9.15,0,0,1-4.88,1.41L298,371.23c0,6.66,4.72,9.38,10.51,6S319,365.77,319,359.11,314.31,349.72,308.53,353.05Z"/><polygon class="cls-13" points="221.21 159.51 221.09 303.73 318.83 359.95 319.09 213.3 221.21 159.51"/><path class="cls-18" d="M479.52,96.63A10.51,10.51,0,0,0,475,96.1a26.23,26.23,0,0,0-7.32,2.36c-13.09,6.42-21.36,22.93-22.5,32.55-.06.58-.11,1.4-.15,2.32v.34c-.11,3.46,0,8.17,0,8.17h0v6.91l42.19,24.15.08-54.32h0C489.06,102.91,483.71,98.08,479.52,96.63Z"/><path class="cls-18" d="M362.33,340.39l-.11-.16a7.6,7.6,0,0,1-1-2.41,7.76,7.76,0,0,1-.14-1.18,34.1,34.1,0,0,1,.18-4.52h0l.05-72V198.34h0c1.75-15.64-3.6-20.47-7.79-21.92a10.64,10.64,0,0,0-4.51-.53c-.68.11-1.35.26-2,.42a26.92,26.92,0,0,0-5.3,1.94c-6.37,3.12-11.6,8.63-15.42,14.57-4,6.28-6.49,13-7.08,18-.07.65-.12,1.6-.16,2.66h0v.43c-.09,3.4,0,7.75,0,7.75h0l-.16,85.93V316l45.21,26.21A5.8,5.8,0,0,1,362.33,340.39Z"/><path class="cls-18" d="M425.27,296.49l-.11-.16a7.45,7.45,0,0,1-.89-2.07v-.14l.09-131.67h0c1.75-15.64-3.6-20.47-7.79-21.91a10.33,10.33,0,0,0-4.51-.53,25.89,25.89,0,0,0-7.32,2.35c-13.09,6.42-21.36,22.94-22.5,32.56-.06.58-.11,1.39-.15,2.31v.34c-.11,3.46,0,8.17,0,8.17h0l-.15,78v8.36l45.14,26.17A5.8,5.8,0,0,1,425.27,296.49Z"/><path class="cls-18" d="M299.34,376.32l-.11-.17a6.89,6.89,0,0,1-1.14-3.58,35.78,35.78,0,0,1,.19-4.63l-85.12-49.08-12.88-7.42-.06,3.51a33,33,0,0,0,.56,3.28,7.06,7.06,0,0,0,2.26,3l98.09,56.87A5.85,5.85,0,0,1,299.34,376.32Z"/><polygon class="cls-7" points="257.75 238.32 257.75 239.38 305.17 266.74 305.17 265.67 257.75 238.32"/><polygon class="cls-7" points="257.75 241.76 257.75 242.82 305.17 270.18 305.17 269.11 257.75 241.76"/><polygon class="cls-7" points="257.75 245.2 257.75 246.26 305.17 273.62 305.17 272.55 257.75 245.2"/><polygon class="cls-7" points="257.75 248.63 257.75 249.7 305.17 277.06 305.17 275.99 257.75 248.63"/><polygon class="cls-7" points="257.75 252.07 257.75 253.14 305.17 280.5 305.17 279.43 257.75 252.07"/><polygon class="cls-7" points="257.75 255.51 257.75 256.58 305.17 283.94 305.17 282.87 257.75 255.51"/><polygon class="cls-7" points="257.75 258.95 257.75 260.02 273.08 268.89 273.08 267.82 257.75 258.95"/><polygon class="cls-14" points="257.75 231.97 257.75 234.85 275.68 245.22 275.68 242.33 257.75 231.97"/><path class="cls-7" d="M229.61,232c0-7.51,5.33-10.58,11.85-6.82s11.84,13,11.84,20.48-5.33,10.58-11.84,6.83S229.61,239.48,229.61,232Z"/><g class="cls-19"><path class="cls-9" d="M240.46,231.26s-8.06-4.88-4.8,12.4l12.28,7.05s3-15.87-3.74-18.27S240.46,231.26,240.46,231.26Z"/><path class="cls-2" d="M241.72,243.45c3.05,1.75,5.54.32,5.54-3.19a12.23,12.23,0,0,0-5.54-9.56c-3-1.76-5.53-.32-5.53,3.18A12.25,12.25,0,0,0,241.72,243.45Z"/><path class="cls-9" d="M244.14,235.24c-.88,1.47-3.94,1.15-6,0a9.24,9.24,0,0,1-2-1.57c.12-3.33,2.55-4.66,5.52-3,2.64,1.52,5.31,4.37,5.4,8.11,0-.19-.34-.17-.52-.27A4.61,4.61,0,0,1,244.14,235.24Z"/><polygon class="cls-2" points="244 242.26 244 247.33 240.13 245.05 240.13 239.97 244 242.26"/><path class="cls-10" d="M232.82,247.28a7.53,7.53,0,0,1,.7-1.59,4.68,4.68,0,0,1,1.43-1.54,5.29,5.29,0,0,1,3-.59l1.16.16h.2a5.54,5.54,0,0,1,.68.25l3.56,1.94a13.08,13.08,0,0,1,6.83,11.16l.09,3.88-18.38-10A20,20,0,0,1,232.82,247.28Z"/></g><polygon class="cls-10" points="260.81 266.06 261.73 268.82 263.79 270.58 262.3 271.2 262.64 273.78 260.8 271.41 258.96 271.24 259.31 269.14 257.82 266.46 259.88 267.55 260.81 266.06"/><polygon class="cls-10" points="268.47 270.47 269.39 273.23 271.45 275 269.95 275.62 270.3 278.19 268.46 275.82 266.62 275.65 266.97 273.56 265.48 270.88 267.54 271.96 268.47 270.47"/><polygon class="cls-7" points="276.13 274.89 277.05 277.65 279.11 279.41 277.62 280.03 277.96 282.61 276.12 280.23 274.28 280.06 274.63 277.97 273.14 275.29 275.2 276.37 276.13 274.89"/><polygon class="cls-7" points="283.79 279.3 284.71 282.06 286.77 283.82 285.27 284.45 285.62 287.02 283.78 284.65 281.94 284.48 282.29 282.39 280.8 279.71 282.86 280.79 283.79 279.3"/><polygon class="cls-7" points="291.45 283.71 292.37 286.47 294.43 288.24 292.93 288.86 293.28 291.44 291.44 289.06 289.6 288.89 289.95 286.8 288.46 284.12 290.52 285.2 291.45 283.71"/><polygon class="cls-7" points="257.75 289.34 257.75 290.4 305.17 317.76 305.17 316.69 257.75 289.34"/><polygon class="cls-7" points="257.75 292.78 257.75 293.84 305.17 321.2 305.17 320.13 257.75 292.78"/><polygon class="cls-7" points="257.75 296.22 257.75 297.28 305.17 324.64 305.17 323.57 257.75 296.22"/><polygon class="cls-7" points="257.75 299.66 257.75 300.72 305.17 328.08 305.17 327.01 257.75 299.66"/><polygon class="cls-7" points="257.75 303.1 257.75 304.16 305.17 331.52 305.17 330.45 257.75 303.1"/><polygon class="cls-7" points="257.75 306.54 257.75 307.6 305.17 334.96 305.17 333.89 257.75 306.54"/><polygon class="cls-7" points="257.75 309.97 257.75 311.04 273.08 319.91 273.08 318.84 257.75 309.97"/><polygon class="cls-14" points="257.75 282.99 257.75 285.87 275.68 296.24 275.68 293.35 257.75 282.99"/><path class="cls-7" d="M229.61,283c0-7.51,5.33-10.58,11.85-6.82s11.84,13,11.84,20.48-5.33,10.58-11.84,6.83S229.61,290.5,229.61,283Z"/><g class="cls-20"><path class="cls-2" d="M241.72,294.47c3.05,1.75,5.54.32,5.54-3.19a12.23,12.23,0,0,0-5.54-9.56c-3-1.75-5.53-.32-5.53,3.19A12.25,12.25,0,0,0,241.72,294.47Z"/><path class="cls-9" d="M244.14,286.26c-.88,1.47-3.94,1.15-6,0a9.24,9.24,0,0,1-2-1.57c.12-3.33,2.55-4.66,5.52-2.95a12.44,12.44,0,0,1,5.4,8.12l-.52-.27A4.62,4.62,0,0,1,244.14,286.26Z"/><polygon class="cls-2" points="244 293.28 244 298.36 240.13 296.07 240.13 291 244 293.28"/><path class="cls-9" d="M232.82,298.3a7.53,7.53,0,0,1,.7-1.59,4.68,4.68,0,0,1,1.43-1.54,5.29,5.29,0,0,1,3-.59l1.16.16h.2a5.54,5.54,0,0,1,.68.25l3.56,1.94a13.08,13.08,0,0,1,6.83,11.16l.09,3.88-18.38-10A20,20,0,0,1,232.82,298.3Z"/></g><polygon class="cls-10" points="260.81 316.61 261.73 319.37 263.79 321.14 262.3 321.76 262.64 324.34 260.8 321.96 258.96 321.79 259.31 319.7 257.82 317.02 259.88 318.1 260.81 316.61"/><polygon class="cls-10" points="268.47 321.03 269.39 323.79 271.45 325.55 269.95 326.17 270.3 328.75 268.46 326.38 266.62 326.2 266.97 324.12 265.48 321.43 267.54 322.51 268.47 321.03"/><polygon class="cls-10" points="276.13 325.44 277.05 328.2 279.11 329.96 277.62 330.59 277.96 333.16 276.12 330.79 274.28 330.62 274.63 328.53 273.14 325.85 275.2 326.93 276.13 325.44"/><polygon class="cls-7" points="283.79 329.86 284.71 332.62 286.77 334.38 285.27 335 285.62 337.58 283.78 335.2 281.94 335.03 282.29 332.94 280.8 330.26 282.86 331.34 283.79 329.86"/><polygon class="cls-7" points="291.45 334.27 292.37 337.03 294.43 338.79 292.93 339.42 293.28 341.99 291.44 339.62 289.6 339.45 289.95 337.36 288.46 334.68 290.52 335.76 291.45 334.27"/><polygon class="cls-7" points="257.75 184.7 257.75 185.77 305.17 213.13 305.17 212.06 257.75 184.7"/><polygon class="cls-7" points="257.75 188.14 257.75 189.21 305.17 216.56 305.17 215.5 257.75 188.14"/><polygon class="cls-7" points="257.75 191.58 257.75 192.65 305.17 220 305.17 218.94 257.75 191.58"/><polygon class="cls-7" points="257.75 195.02 257.75 196.09 305.17 223.44 305.17 222.38 257.75 195.02"/><polygon class="cls-7" points="257.75 198.46 257.75 199.53 305.17 226.88 305.17 225.82 257.75 198.46"/><polygon class="cls-7" points="257.75 201.9 257.75 202.97 305.17 230.32 305.17 229.26 257.75 201.9"/><polygon class="cls-7" points="257.75 205.34 257.75 206.41 273.08 215.27 273.08 214.21 257.75 205.34"/><polygon class="cls-14" points="257.75 178.35 257.75 181.24 275.68 191.6 275.68 188.72 257.75 178.35"/><path class="cls-7" d="M229.61,178.36c0-7.51,5.33-10.58,11.85-6.83s11.84,13,11.84,20.49-5.33,10.58-11.84,6.82S229.61,185.87,229.61,178.36Z"/><g class="cls-21"><path class="cls-2" d="M241.72,189.83c3.05,1.76,5.54.32,5.54-3.18a12.26,12.26,0,0,0-5.54-9.57c-3-1.75-5.53-.32-5.53,3.19A12.25,12.25,0,0,0,241.72,189.83Z"/><path class="cls-9" d="M244.14,181.62c-.88,1.48-3.94,1.15-6,0a9,9,0,0,1-2-1.58c.12-3.33,2.55-4.66,5.52-2.95a12.44,12.44,0,0,1,5.4,8.12l-.52-.27A4.63,4.63,0,0,1,244.14,181.62Z"/><polygon class="cls-2" points="244 188.65 244 193.72 240.13 191.43 240.13 186.36 244 188.65"/><path class="cls-9" d="M232.82,193.66a7.53,7.53,0,0,1,.7-1.59,4.55,4.55,0,0,1,1.43-1.53,5.13,5.13,0,0,1,3-.59c.12,0,1.16.15,1.16.15l.2.05a4.23,4.23,0,0,1,.68.24l3.56,1.94a13.09,13.09,0,0,1,6.83,11.17l.09,3.87-18.38-10A20.3,20.3,0,0,1,232.82,193.66Z"/></g><polygon class="cls-10" points="260.81 210.99 261.73 213.75 263.79 215.51 262.3 216.13 262.64 218.71 260.8 216.34 258.96 216.16 259.31 214.07 257.82 211.39 259.88 212.47 260.81 210.99"/><polygon class="cls-10" points="268.47 215.4 269.39 218.16 271.45 219.92 269.95 220.55 270.3 223.12 268.46 220.75 266.62 220.58 266.97 218.49 265.48 215.81 267.54 216.89 268.47 215.4"/><polygon class="cls-10" points="276.13 219.82 277.05 222.58 279.11 224.34 277.62 224.96 277.96 227.54 276.12 225.16 274.28 224.99 274.63 222.9 273.14 220.22 275.2 221.3 276.13 219.82"/><polygon class="cls-10" points="283.79 224.23 284.71 226.99 286.77 228.75 285.27 229.38 285.62 231.95 283.78 229.58 281.94 229.41 282.29 227.32 280.8 224.63 282.86 225.72 283.79 224.23"/><polygon class="cls-10" points="291.45 228.65 292.37 231.4 294.43 233.17 292.93 233.79 293.28 236.37 291.44 233.99 289.6 233.82 289.95 231.73 288.46 229.05 290.52 230.13 291.45 228.65"/><polygon class="cls-9" points="240.4 185.86 240.44 186.57 242.57 187.81 242.52 187.02 240.4 185.86"/><path class="cls-22" d="M66.88,318.23c17.09,9.85,45.07,9.85,62.16,0s17.1-26,0-35.83-45.07-9.86-62.16,0S49.78,308.37,66.88,318.23Zm5.94-33c13.83-8,36.45-8,50.28,0s13.82,21,0,29-36.44,8-50.27,0-13.83-21.05,0-29Z"/><path class="cls-23" d="M66.88,320.23c17.09,9.86,45.07,9.86,62.16,0s17.1-26,0-35.83-45.07-9.85-62.16,0S49.78,310.38,66.88,320.23Zm5.94-33c13.83-8,36.45-8,50.28,0s13.82,21,0,29-36.44,8-50.27,0-13.83-21,0-29Z"/><path class="cls-24" d="M72.82,311c13.83,8,36.45,8,50.27,0s13.83-21,0-29-36.45-8-50.28,0S59,303,72.82,311Z"/><path class="cls-25" d="M46.64,331.64c1.55.89,2.81.16,2.81-1.62a6.19,6.19,0,0,0-2.81-4.85c-1.54-.89-2.8-.16-2.8,1.62A6.21,6.21,0,0,0,46.64,331.64Z"/><path class="cls-23" d="M65.51,320.87c1.56.89,2.83.16,2.83-1.63a6.26,6.26,0,0,0-2.83-4.9c-1.55-.89-2.83-.16-2.83,1.63A6.26,6.26,0,0,0,65.51,320.87Z"/><polyline class="cls-23" points="67.67 320.96 48.47 331.96 48.47 327.18 44.48 325.06 63.56 314.11"/><path class="cls-26" d="M46.48,333.3c2.43,1.41,4.42.26,4.42-2.54a9.82,9.82,0,0,0-4.42-7.65c-2.44-1.4-4.42-.25-4.42,2.55A9.74,9.74,0,0,0,46.48,333.3Z"/><polyline class="cls-26" points="49.85 333.45 15.08 353.49 15.08 346.02 8.84 342.71 43.43 322.74"/><path class="cls-23" d="M12.21,353c2.42,1.39,4.39.25,4.39-2.53a9.67,9.67,0,0,0-4.39-7.58c-2.41-1.39-4.38-.26-4.38,2.52A9.72,9.72,0,0,0,12.21,353Z"/><polygon class="cls-22" points="141.86 302.56 141.86 296.9 137.05 301.98 141.86 302.56"/><path class="cls-27" d="M66.88,315C84,324.85,112,324.85,129,315s17.1-26,0-35.83-45.07-9.85-62.16,0S49.78,305.14,66.88,315Zm5.94-33c13.83-8,36.45-8,50.28,0s13.82,21,0,29-36.44,8-50.27,0S59,290,72.82,282Z"/><path class="cls-28" d="M138.85,245.71l-1.32,81.68a4.06,4.06,0,0,0,2,3.56l89.65,52.84a4,4,0,0,0,5.55-1.43,4,4,0,0,0,.56-2l1.3-80.8a4.06,4.06,0,0,0-2-3.54L145,242.3a4,4,0,0,0-6.15,3.41Z"/><path class="cls-9" d="M137.06,246.7l-1.32,81.69a4.06,4.06,0,0,0,2,3.56l89.66,52.84a4,4,0,0,0,6.1-3.43l1.31-80.8a4.06,4.06,0,0,0-2-3.54l-89.64-53.73a4,4,0,0,0-6.11,3.41Z"/><path class="cls-29" d="M138.18,249.14l-1.27,78.77a3.88,3.88,0,0,0,1.92,3.43l86.45,51a3.91,3.91,0,0,0,5.89-3.31l1.26-77.92a3.91,3.91,0,0,0-1.9-3.41l-86.44-51.81a3.91,3.91,0,0,0-5.91,3.25Z"/><path class="cls-9" d="M63.7,374l70.58-41.14a4,4,0,0,1,4.07,0l90,52.3a4,4,0,0,1,0,7l-69.82,40.7a4.07,4.07,0,0,1-4,0L63.73,381a4.05,4.05,0,0,1-1.49-5.53A4.11,4.11,0,0,1,63.7,374Z"/><path class="cls-27" d="M63.69,371.91l70.58-41.14a4,4,0,0,1,4.07,0l90,52.3a4.06,4.06,0,0,1,0,7l-69.82,40.7a4.07,4.07,0,0,1-4.05,0L63.72,378.93a4.06,4.06,0,0,1,0-7Z"/><path class="cls-23" d="M96.61,390.1l22.83-13.31a1.3,1.3,0,0,1,1.32,0l29.09,16.91a1.31,1.31,0,0,1,0,2.27l-22.58,13.16a1.33,1.33,0,0,1-1.31,0L96.62,392.36a1.3,1.3,0,0,1-.5-1.77A1.44,1.44,0,0,1,96.61,390.1Z"/><polygon class="cls-23" points="129.72 338.88 127.79 340.05 212.85 389.14 214.92 387.99 129.72 338.88"/><polygon class="cls-23" points="125.59 341.23 123.66 342.4 208.71 391.49 210.79 390.34 125.59 341.23"/><polygon class="cls-23" points="121.45 343.58 119.53 344.76 204.58 393.85 206.65 392.69 121.45 343.58"/><polygon class="cls-23" points="117.32 345.93 115.39 347.11 200.44 396.2 202.52 395.04 117.32 345.93"/><polygon class="cls-23" points="113.19 348.29 111.26 349.46 196.31 398.55 198.38 397.39 113.19 348.29"/><polygon class="cls-23" points="109.05 350.64 107.12 351.81 192.18 400.9 194.25 399.75 109.05 350.64"/><polygon class="cls-10" points="145.32 347.82 143.39 348.99 145.28 350.11 147.35 348.96 145.32 347.82"/><polygon class="cls-10" points="150.93 365.32 149 366.5 150.89 367.62 152.97 366.46 150.93 365.32"/><polygon class="cls-10" points="184.37 375.12 182.44 376.3 184.33 377.42 186.41 376.27 184.37 375.12"/><polygon class="cls-10" points="189.46 378.04 187.53 379.21 189.42 380.34 191.5 379.18 189.46 378.04"/><polygon class="cls-10" points="131.92 344.86 129.99 346.04 134.19 348.5 136.27 347.34 131.92 344.86"/><polygon class="cls-10" points="166.03 383.54 164.11 384.72 168.31 387.18 170.38 386.02 166.03 383.54"/><polygon class="cls-7" points="174.76 298.98 174.76 300.05 222.18 327.4 222.18 326.34 174.76 298.98"/><polygon class="cls-7" points="174.76 302.42 174.76 303.49 222.18 330.85 222.18 329.78 174.76 302.42"/><polygon class="cls-7" points="174.76 305.86 174.76 306.93 222.18 334.28 222.18 333.22 174.76 305.86"/><polygon class="cls-7" points="174.76 309.3 174.76 310.37 222.18 337.72 222.18 336.66 174.76 309.3"/><polygon class="cls-7" points="174.76 312.74 174.76 313.81 222.18 341.16 222.18 340.1 174.76 312.74"/><polygon class="cls-7" points="174.76 316.18 174.76 317.25 222.18 344.6 222.18 343.54 174.76 316.18"/><polygon class="cls-7" points="174.76 319.62 174.76 320.69 190.09 329.55 190.09 328.49 174.76 319.62"/><polygon class="cls-14" points="174.76 292.63 174.76 295.52 192.69 305.88 192.69 303 174.76 292.63"/><path class="cls-7" d="M146.62,292.64c0-7.51,5.34-10.58,11.85-6.83s11.85,13,11.85,20.48-5.33,10.59-11.85,6.83S146.62,300.15,146.62,292.64Z"/><g class="cls-30"><path class="cls-2" d="M158.74,304.11c3,1.76,5.53.32,5.53-3.18a12.25,12.25,0,0,0-5.53-9.57c-3-1.75-5.53-.32-5.53,3.19A12.25,12.25,0,0,0,158.74,304.11Z"/><path class="cls-9" d="M161.16,295.9c-.89,1.47-3.95,1.15-6,0a9.29,9.29,0,0,1-2-1.58c.11-3.33,2.55-4.66,5.52-2.95a12.43,12.43,0,0,1,5.39,8.12l-.52-.27A4.64,4.64,0,0,1,161.16,295.9Z"/><polygon class="cls-2" points="161.02 302.93 161.02 308 157.14 305.71 157.14 300.64 161.02 302.93"/><path class="cls-9" d="M149.83,307.94a7.09,7.09,0,0,1,.71-1.59,4.52,4.52,0,0,1,1.42-1.53,5.21,5.21,0,0,1,3-.59c.13,0,1.16.15,1.16.15l.2.05a4.23,4.23,0,0,1,.68.24l3.57,1.94a13.12,13.12,0,0,1,6.82,11.17l.09,3.87-18.38-10A20.3,20.3,0,0,1,149.83,307.94Z"/></g><polygon class="cls-10" points="177.82 326.26 178.74 329.02 180.8 330.78 179.31 331.4 179.66 333.98 177.81 331.61 175.97 331.44 176.32 329.35 174.84 326.66 176.9 327.75 177.82 326.26"/><polygon class="cls-10" points="185.48 330.67 186.4 333.43 188.46 335.19 186.97 335.82 187.32 338.39 185.47 336.02 183.63 335.85 183.98 333.76 182.5 331.08 184.56 332.16 185.48 330.67"/><polygon class="cls-10" points="193.14 335.09 194.06 337.85 196.12 339.61 194.63 340.23 194.98 342.81 193.13 340.43 191.29 340.26 191.64 338.17 190.15 335.49 192.22 336.57 193.14 335.09"/><polygon class="cls-7" points="200.8 339.5 201.72 342.26 203.78 344.02 202.29 344.65 202.64 347.22 200.79 344.85 198.95 344.68 199.3 342.59 197.81 339.91 199.88 340.99 200.8 339.5"/><polygon class="cls-7" points="208.46 343.92 209.38 346.67 211.44 348.44 209.95 349.06 210.3 351.64 208.45 349.26 206.61 349.09 206.96 347 205.47 344.32 207.54 345.4 208.46 343.92"/></g></g></svg>