<?xml version="1.0" encoding="utf-8"?>
<!-- Generator: Adobe Illustrator 22.0.1, SVG Export Plug-In . SVG Version: 6.00 Build 0)  -->
<svg version="1.1" id="Layer_1" xmlns="http://www.w3.org/2000/svg" xmlns:xlink="http://www.w3.org/1999/xlink" x="0px" y="0px"
	 viewBox="0 0 496.9 496.9" style="enable-background:new 0 0 496.9 496.9;" xml:space="preserve">
<style type="text/css">
	.st0{display:none;fill:#1B3164;}
	.st1{fill:#33A0BA;}
	.st2{fill:#1B3164;}
	.st3{fill:#CDCDF7;}
	.st4{fill:#8181E2;}
	.st5{fill:#ACACDD;}
	.st6{fill:#C0C6FF;}
	.st7{clip-path:url(#SVGID_2_);}
	.st8{fill:#FFFFFF;}
	.st9{fill:#3C3592;}
	.st10{fill:#48EDE7;}
	.st11{clip-path:url(#SVGID_4_);}
	.st12{clip-path:url(#SVGID_6_);}
	.st13{fill:#E3E3FC;}
	.st14{fill:#A5AFEF;}
	.st15{clip-path:url(#SVGID_8_);}
	.st16{clip-path:url(#SVGID_10_);}
	.st17{clip-path:url(#SVGID_12_);}
	.st18{fill:#90B9F7;}
	.st19{clip-path:url(#SVGID_14_);}
	.st20{clip-path:url(#SVGID_16_);}
	.st21{clip-path:url(#SVGID_18_);}
	.st22{fill:#424284;}
	.st23{fill:#28287F;}
	.st24{opacity:0.61;fill:#FFFFFF;enable-background:new    ;}
	.st25{fill:#6262CC;}
	.st26{fill:#9494F7;}
	.st27{fill:#777CE0;}
	.st28{fill:#4F4F99;}
	.st29{fill:#1A1A59;}
	.st30{clip-path:url(#SVGID_20_);}
</style>
<title>Img2</title>
<path class="st0" d="M300.9,390c23.3,13.5,61.5,13.5,84.9,0s23.3-35.5,0-48.9s-61.5-13.5-84.9,0S277.6,376.6,300.9,390z"/>
<path class="st0" d="M393.5,295.7c23.3,13.5,61.5,13.5,84.9,0s23.3-35.5,0-48.9s-61.5-13.4-84.9,0
	C370.2,260.2,370.2,282.3,393.5,295.7z"/>
<path class="st0" d="M166.9,297c19.1,11,50.4,11,69.6,0s19.1-29.1,0-40.1s-50.4-11-69.6,0S147.8,286,166.9,297z"/>
<g>
	<rect class="st1" width="496.9" height="496.9"/>
	<path class="st2" d="M156.6,235.1c6.5,3.8,17.2,3.8,23.7,0s6.5-9.9,0-13.7s-17.2-3.8-23.7,0S150.1,231.4,156.6,235.1z"/>
	<path class="st2" d="M53.2,287.8c6.5,3.8,17.2,3.8,23.7,0s6.5-9.9,0-13.7s-17.2-3.8-23.7,0S46.7,284,53.2,287.8z"/>
	<path class="st2" d="M423.8,338.9c6.5,3.8,17.2,3.8,23.7,0s6.5-9.9,0-13.7s-17.2-3.8-23.7,0S417.3,335.1,423.8,338.9z"/>
	<path class="st2" d="M29.5,350.6c6.5,3.8,17.2,3.8,23.7,0s6.5-9.9,0-13.7s-17.2-3.8-23.7,0S23,346.8,29.5,350.6z"/>
	<path class="st2" d="M195.2,412.1c15.1,8.7,39.8,8.7,54.9,0s15.1-22.9,0-31.6s-39.8-8.7-54.9,0S180.1,403.4,195.2,412.1z"/>
	<path class="st3" d="M347.1,79.7c0.3-17.1,14.3-41.1,33.6-38.6l100.6,56.6l-34,37.2C447.4,134.9,347.1,82.6,347.1,79.7z"/>
	<path class="st4" d="M326.2,231.6l-0.1,3.5c0.1,1.1,0.3,2.2,0.6,3.3c0.5,1.2,1.2,2.2,2.3,3l98.1,56.9c-1.5-1-2.6-2.6-2.9-4.4
		c-0.2-1.9-0.2-3.9,0-5.8L326.2,231.6z"/>
	<path class="st3" d="M445,133.3l-97.9-53.7L347,223.9c-0.6,6.4-5.1,13.9-10.4,16.9c-1.5,0.9-3.2,1.4-4.9,1.4l92.3,49.1
		c0,6.7,4.7,9.4,10.5,6s10.5-11.5,10.5-18.2c0-0.7-0.1-1.5-0.2-2.2L445,133.3z"/>
	<polygon class="st5" points="385.4,102 385.4,103.1 432.8,130.4 432.8,129.4 	"/>
	<polygon class="st5" points="385.4,105.5 385.4,106.5 432.8,133.9 432.8,132.8 	"/>
	<polygon class="st5" points="385.4,108.9 385.4,110 432.8,137.3 432.8,136.3 	"/>
	<polygon class="st5" points="385.4,112.3 385.4,113.4 432.8,140.8 432.8,139.7 	"/>
	<polygon class="st5" points="385.4,115.8 385.4,116.8 432.8,144.2 432.8,143.1 	"/>
	<polygon class="st5" points="385.4,119.2 385.4,120.3 432.8,147.6 432.8,146.6 	"/>
	<polygon class="st5" points="385.4,122.7 385.4,123.7 400.7,132.6 400.7,131.5 	"/>
	<polygon class="st5" points="385.4,95.7 385.4,98.6 403.3,108.9 403.3,106 	"/>
	<path class="st6" d="M357.2,95.7c0-7.5,5.3-10.6,11.9-6.8s11.8,13,11.8,20.5s-5.3,10.6-11.8,6.8S357.2,103.2,357.2,95.7z"/>
	<path class="st5" d="M357.2,95.7c0-7.5,5.3-10.6,11.9-6.8s11.8,13,11.8,20.5s-5.3,10.6-11.8,6.8S357.2,103.2,357.2,95.7z"/>
	<g>
		<g>
			<defs>
				<path id="SVGID_1_" d="M357.2,95.7c0-7.5,5.3-10.6,11.9-6.8s11.8,13,11.8,20.5s-5.3,10.6-11.8,6.8S357.2,103.2,357.2,95.7z"/>
			</defs>
			<clipPath id="SVGID_2_">
				<use xlink:href="#SVGID_1_"  style="overflow:visible;"/>
			</clipPath>
			<g class="st7">
				<path class="st8" d="M369.4,107.2c3,1.8,5.5,0.3,5.5-3.2c-0.2-3.9-2.3-7.4-5.5-9.6c-3-1.8-5.5-0.3-5.5,3.2
					C364,101.5,366.1,105,369.4,107.2z"/>
				<path class="st9" d="M371.8,98.9c-0.9,1.5-3.9,1.2-6,0c-0.7-0.4-1.4-1-2-1.6c0.1-3.3,2.5-4.7,5.5-2.9c2.8,1.9,4.8,4.8,5.4,8.1
					l-0.5-0.3C372.9,101.6,372,100.4,371.8,98.9z"/>
				<polygon class="st8" points="371.6,106 371.6,111 367.8,108.8 367.8,103.7 				"/>
				<path class="st9" d="M360.4,111c0.2-0.6,0.4-1.1,0.7-1.6c0.4-0.6,0.8-1.1,1.4-1.5c0.9-0.5,2-0.7,3-0.6l1.2,0.2h0.2
					c0.2,0.1,0.5,0.1,0.7,0.2l3.6,1.9c4.1,2.2,6.7,6.5,6.8,11.2l0.1,3.9l-18.4-10C359.8,113.4,360.1,112.2,360.4,111z"/>
			</g>
		</g>
	</g>
	<polygon class="st10" points="388.4,128.3 389.4,131.1 391.4,132.8 389.9,133.4 390.3,136 388.4,133.6 386.6,133.5 386.9,131.4 
		385.4,128.7 387.5,129.8 	"/>
	<polygon class="st10" points="396.1,132.7 397,135.5 399.1,137.2 397.6,137.9 397.9,140.4 396.1,138.1 394.2,137.9 394.6,135.8 
		393.1,133.1 395.2,134.2 	"/>
	<polygon class="st10" points="403.8,137.1 404.7,139.9 406.7,141.7 405.2,142.3 405.6,144.9 403.7,142.5 401.9,142.3 402.3,140.2 
		400.8,137.5 402.8,138.6 	"/>
	<polygon class="st10" points="411.4,141.6 412.3,144.3 414.4,146.1 412.9,146.7 413.2,149.3 411.4,146.9 409.6,146.7 409.9,144.6 
		408.4,141.9 410.5,143 	"/>
	<polygon class="st10" points="419.1,146 420,148.7 422,150.5 420.6,151.1 420.9,153.7 419.1,151.3 417.2,151.1 417.6,149.1 
		416.1,146.4 418.1,147.4 	"/>
	<polygon class="st5" points="385.4,155.6 385.4,156.7 432.8,184.1 432.8,183 	"/>
	<polygon class="st5" points="385.4,159.1 385.4,160.1 432.8,187.5 432.8,186.4 	"/>
	<polygon class="st5" points="385.4,162.5 385.4,163.6 432.8,190.9 432.8,189.9 	"/>
	<polygon class="st5" points="385.4,165.9 385.4,167 432.8,194.4 432.8,193.3 	"/>
	<polygon class="st5" points="385.4,169.4 385.4,170.5 432.8,197.8 432.8,196.8 	"/>
	<polygon class="st5" points="385.4,172.8 385.4,173.9 432.8,201.3 432.8,200.2 	"/>
	<polygon class="st5" points="385.4,176.3 385.4,177.3 400.7,186.2 400.7,185.1 	"/>
	<polygon class="st5" points="385.4,149.3 385.4,152.2 403.3,162.5 403.3,159.6 	"/>
	<path class="st6" d="M357.2,149.3c0-7.5,5.3-10.6,11.9-6.8s11.8,13,11.8,20.5s-5.3,10.6-11.8,6.8S357.2,156.8,357.2,149.3z"/>
	<g>
		<g>
			<defs>
				<path id="SVGID_3_" d="M357.2,149.3c0-7.5,5.3-10.6,11.9-6.8s11.8,13,11.8,20.5s-5.3,10.6-11.8,6.8S357.2,156.8,357.2,149.3z"/>
			</defs>
			<clipPath id="SVGID_4_">
				<use xlink:href="#SVGID_3_"  style="overflow:visible;"/>
			</clipPath>
			<g class="st11">
				<path class="st8" d="M369.4,160.8c3,1.8,5.5,0.3,5.5-3.2c-0.2-3.9-2.3-7.4-5.5-9.6c-3-1.8-5.5-0.3-5.5,3.2
					C364,155.1,366.1,158.6,369.4,160.8z"/>
				<path class="st9" d="M371.8,152.6c-0.9,1.5-3.9,1.1-6,0c-0.7-0.4-1.4-1-2-1.6c0.1-3.3,2.5-4.7,5.5-3c2.8,1.9,4.8,4.8,5.4,8.1
					l-0.5-0.3C372.9,155.2,372,153.9,371.8,152.6z"/>
				<polygon class="st8" points="371.6,159.6 371.6,164.6 367.8,162.4 367.8,157.3 				"/>
				<path class="st9" d="M360.4,164.6c0.2-0.6,0.4-1.1,0.7-1.6c0.4-0.6,0.8-1.1,1.4-1.5c0.9-0.5,2-0.7,3-0.6c0.1,0,1.2,0.2,1.2,0.2
					h0.2c0.2,0.1,0.5,0.1,0.7,0.2l3.6,1.9c4.1,2.2,6.7,6.5,6.8,11.2l0.1,3.9l-18.4-10C359.8,167,360.1,165.8,360.4,164.6z"/>
			</g>
		</g>
	</g>
	<polygon class="st10" points="388.4,183.4 389.4,186.1 391.4,187.9 389.9,188.5 390.3,191.1 388.4,188.7 386.6,188.6 386.9,186.5 
		385.4,183.8 387.5,184.9 	"/>
	<polygon class="st10" points="396.1,187.8 397,190.6 399.1,192.3 397.6,192.9 397.9,195.5 396.1,193.1 394.2,193 394.6,190.9 
		393.1,188.2 395.2,189.3 	"/>
	<polygon class="st6" points="403.8,192.2 404.7,195 406.7,196.7 405.2,197.4 405.6,199.9 403.7,197.6 401.9,197.4 402.3,195.3 
		400.8,192.6 402.8,193.7 	"/>
	<polygon class="st6" points="411.4,196.6 412.3,199.4 414.4,201.1 412.9,201.8 413.2,204.3 411.4,202 409.6,201.8 409.9,199.7 
		408.4,197 410.5,198.1 	"/>
	<polygon class="st6" points="419.1,201 420,203.8 422,205.6 420.6,206.2 420.9,208.8 419.1,206.4 417.2,206.2 417.6,204.1 
		416.1,201.4 418.1,202.5 	"/>
	<polygon class="st5" points="385.4,206.7 385.4,207.7 432.8,235.1 432.8,234 	"/>
	<polygon class="st5" points="385.4,210.1 385.4,211.2 432.8,238.5 432.8,237.4 	"/>
	<polygon class="st5" points="385.4,213.5 385.4,214.6 432.8,242 432.8,240.9 	"/>
	<polygon class="st5" points="385.4,217 385.4,218 432.8,245.4 432.8,244.3 	"/>
	<polygon class="st5" points="385.4,220.4 385.4,221.5 432.8,248.8 432.8,247.8 	"/>
	<polygon class="st5" points="385.4,223.9 385.4,224.9 432.8,252.3 432.8,251.2 	"/>
	<polygon class="st5" points="385.4,227.3 385.4,228.4 400.7,237.2 400.7,236.2 	"/>
	<polygon class="st5" points="385.4,200.3 385.4,203.2 403.3,213.6 403.3,210.7 	"/>
	<path class="st6" d="M357.2,200.3c0-7.5,5.3-10.6,11.9-6.8s11.8,13,11.8,20.5s-5.3,10.6-11.8,6.8S357.2,207.8,357.2,200.3z"/>
	<g>
		<g>
			<defs>
				<path id="SVGID_5_" d="M357.2,200.3c0-7.5,5.3-10.6,11.9-6.8s11.8,13,11.8,20.5s-5.3,10.6-11.8,6.8S357.2,207.8,357.2,200.3z"/>
			</defs>
			<clipPath id="SVGID_6_">
				<use xlink:href="#SVGID_5_"  style="overflow:visible;"/>
			</clipPath>
			<g class="st12">
				<path class="st8" d="M369.4,211.8c3,1.8,5.5,0.3,5.5-3.2c-0.2-3.9-2.3-7.4-5.5-9.6c-3-1.8-5.5-0.3-5.5,3.2
					C364,206.1,366.1,209.7,369.4,211.8z"/>
				<path class="st9" d="M371.8,203.6c-0.9,1.5-3.9,1.1-6,0c-0.7-0.4-1.4-1-2-1.6c0.1-3.3,2.5-4.7,5.5-2.9c2.8,1.9,4.8,4.8,5.4,8.1
					l-0.5-0.3C372.9,206.2,372,205,371.8,203.6z"/>
				<polygon class="st8" points="371.6,210.6 371.6,215.7 367.8,213.4 367.8,208.3 				"/>
				<path class="st9" d="M360.4,215.6c0.2-0.6,0.4-1.1,0.7-1.6c0.4-0.6,0.8-1.1,1.4-1.5c0.9-0.5,2-0.7,3-0.6c0.1,0,1.2,0.2,1.2,0.2
					h0.2c0.2,0.1,0.5,0.1,0.7,0.2l3.6,1.9c4.1,2.2,6.7,6.5,6.8,11.2l0.1,3.9l-18.4-10C359.8,218.1,360.1,216.8,360.4,215.6z"/>
			</g>
		</g>
	</g>
	<polygon class="st10" points="388.4,233.9 389.4,236.7 391.4,238.4 389.9,239.1 390.3,241.6 388.4,239.3 386.6,239.1 386.9,237 
		385.4,234.3 387.5,235.4 	"/>
	<polygon class="st10" points="396.1,238.4 397,241.1 399.1,242.9 397.6,243.5 397.9,246.1 396.1,243.7 394.2,243.5 394.6,241.4 
		393.1,238.8 395.2,239.8 	"/>
	<polygon class="st10" points="403.8,242.8 404.7,245.5 406.7,247.3 405.2,247.9 405.6,250.5 403.7,248.1 401.9,247.9 402.3,245.9 
		400.8,243.2 402.8,244.3 	"/>
	<polygon class="st6" points="411.4,247.2 412.3,249.9 414.4,251.7 412.9,252.3 413.2,254.9 411.4,252.5 409.6,252.4 409.9,250.3 
		408.4,247.6 410.5,248.7 	"/>
	<polygon class="st6" points="419.1,251.6 420,254.4 422,256.1 420.6,256.7 420.9,259.3 419.1,256.9 417.2,256.8 417.6,254.7 
		416.1,252 418.1,253.1 	"/>
	<path class="st13" d="M284.2,123.6c0.3-17.1,14.3-41.1,33.6-38.6l100.6,56.6l-34,37.2C384.5,178.8,284.1,126.5,284.2,123.6z"/>
	<path class="st13" d="M382.1,177.2l-97.9-53.6l-0.1,144.2c-0.6,6.4-5.1,13.9-10.4,16.9c-1.5,0.9-3.2,1.4-4.9,1.4l92.2,49.1
		c0,6.7,4.7,9.4,10.5,6S382,329.7,382,323c0-0.7-0.1-1.5-0.2-2.2L382.1,177.2z"/>
	<polygon class="st6" points="322.1,149.8 322.1,150.9 369.5,178.3 369.5,177.2 	"/>
	<polygon class="st6" points="322.1,153.3 322.1,154.4 369.5,181.7 369.5,180.6 	"/>
	<polygon class="st6" points="322.1,156.7 322.1,157.8 369.5,185.1 369.5,184.1 	"/>
	<polygon class="st6" points="322.1,160.2 322.1,161.2 369.5,188.6 369.5,187.5 	"/>
	<polygon class="st6" points="322.1,163.6 322.1,164.7 369.5,192 369.5,191 	"/>
	<polygon class="st6" points="322.1,167 322.1,168.1 369.5,195.5 369.5,194.4 	"/>
	<polygon class="st6" points="322.1,170.5 322.1,171.6 337.5,180.4 337.5,179.4 	"/>
	<polygon class="st14" points="322.1,143.5 322.1,146.4 340.1,156.7 340.1,153.9 	"/>
	<path class="st6" d="M294,143.5c0-7.5,5.3-10.6,11.8-6.8s11.9,13,11.9,20.5s-5.3,10.6-11.9,6.8S294,151,294,143.5z"/>
	<g>
		<g>
			<defs>
				<path id="SVGID_7_" d="M294,143.5c0-7.5,5.3-10.6,11.8-6.8s11.9,13,11.9,20.5s-5.3,10.6-11.9,6.8S294,151,294,143.5z"/>
			</defs>
			<clipPath id="SVGID_8_">
				<use xlink:href="#SVGID_7_"  style="overflow:visible;"/>
			</clipPath>
			<g class="st15">
				<path class="st8" d="M306.1,155c3,1.8,5.5,0.3,5.5-3.2c-0.2-3.9-2.3-7.4-5.5-9.6c-3-1.8-5.5-0.3-5.5,3.2
					C300.8,149.3,302.8,152.9,306.1,155z"/>
				<path class="st9" d="M308.5,146.8c-0.9,1.5-4,1.1-6,0c-0.7-0.4-1.4-1-2-1.6c0.1-3.3,2.5-4.7,5.5-2.9c2.8,1.9,4.8,4.8,5.4,8.1
					l-0.5-0.3C309.6,149.4,308.8,148.2,308.5,146.8z"/>
				<polygon class="st8" points="308.4,153.8 308.4,158.9 304.5,156.6 304.5,151.5 				"/>
				<path class="st9" d="M297.2,158.8c0.2-0.6,0.4-1.1,0.7-1.6c0.4-0.6,0.8-1.1,1.4-1.5c0.9-0.5,2-0.7,3-0.6c0.1,0,1.2,0.2,1.2,0.2
					h0.2c0.2,0.1,0.5,0.1,0.7,0.2l3.6,1.9c4.1,2.2,6.7,6.5,6.8,11.2l0.1,3.9l-18.4-10C296.6,161.2,296.8,160,297.2,158.8z"/>
			</g>
		</g>
	</g>
	<polygon class="st10" points="325.2,176.1 326.1,178.9 328.2,180.6 326.7,181.3 327,183.9 325.2,181.5 323.3,181.3 323.7,179.2 
		322.2,176.5 324.3,177.6 	"/>
	<polygon class="st10" points="332.9,180.5 333.8,183.3 335.8,185.1 334.3,185.7 334.7,188.3 332.8,185.9 331,185.7 331.4,183.6 
		329.9,180.9 331.9,182 	"/>
	<polygon class="st10" points="340.5,185 341.4,187.7 343.5,189.5 342,190.1 342.3,192.7 340.5,190.3 338.6,190.1 339,188 
		337.5,185.4 339.6,186.4 	"/>
	<polygon class="st10" points="348.2,189.4 349.1,192.1 351.1,193.9 349.6,194.5 350,197.1 348.2,194.7 346.3,194.6 346.7,192.5 
		345.2,189.8 347.2,190.9 	"/>
	<polygon class="st10" points="355.8,193.8 356.7,196.6 358.8,198.3 357.3,198.9 357.7,201.5 355.8,199.1 354,199 354.3,196.9 
		352.8,194.2 354.9,195.3 	"/>
	<polygon class="st6" points="322.1,203.5 322.1,204.5 369.5,231.9 369.5,230.8 	"/>
	<polygon class="st6" points="322.1,206.9 322.1,208 369.5,235.3 369.5,234.3 	"/>
	<polygon class="st6" points="322.1,210.3 322.1,211.4 369.5,238.8 369.5,237.7 	"/>
	<polygon class="st6" points="322.1,213.8 322.1,214.8 369.5,242.2 369.5,241.1 	"/>
	<polygon class="st6" points="322.1,217.2 322.1,218.3 369.5,245.6 369.5,244.6 	"/>
	<polygon class="st6" points="322.1,220.7 322.1,221.7 369.5,249.1 369.5,248 	"/>
	<polygon class="st6" points="322.1,224.1 322.1,225.2 337.5,234 337.5,233 	"/>
	<polygon class="st14" points="322.1,197.1 322.1,200 340.1,210.4 340.1,207.5 	"/>
	<path class="st6" d="M294,197.1c0-7.5,5.3-10.6,11.8-6.8s11.9,13,11.9,20.5s-5.3,10.6-11.9,6.8S294,204.6,294,197.1z"/>
	<g>
		<g>
			<defs>
				<path id="SVGID_9_" d="M294,197.1c0-7.5,5.3-10.6,11.8-6.8s11.9,13,11.9,20.5s-5.3,10.6-11.9,6.8S294,204.6,294,197.1z"/>
			</defs>
			<clipPath id="SVGID_10_">
				<use xlink:href="#SVGID_9_"  style="overflow:visible;"/>
			</clipPath>
			<g class="st16">
				<path class="st8" d="M306.1,208.6c3,1.8,5.5,0.3,5.5-3.2c-0.2-3.9-2.3-7.4-5.5-9.6c-3-1.8-5.5-0.3-5.5,3.2
					C300.8,202.9,302.8,206.5,306.1,208.6z"/>
				<path class="st9" d="M308.5,200.4c-0.9,1.5-4,1.1-6,0c-0.7-0.4-1.4-1-2-1.6c0.1-3.3,2.5-4.7,5.5-2.9c2.8,1.9,4.8,4.8,5.4,8.1
					l-0.5-0.3C309.6,203,308.8,201.8,308.5,200.4z"/>
				<polygon class="st8" points="308.4,207.4 308.4,212.5 304.5,210.2 304.5,205.1 				"/>
				<path class="st9" d="M297.2,212.4c0.2-0.6,0.4-1.1,0.7-1.6c0.4-0.6,0.8-1.1,1.4-1.5c0.9-0.5,2-0.7,3-0.6l1.2,0.2h0.2
					c0.2,0.1,0.5,0.1,0.7,0.2l3.6,1.9c4.1,2.2,6.7,6.5,6.8,11.2l0.1,3.9l-18.4-10C296.6,214.8,296.8,213.6,297.2,212.4z"/>
			</g>
		</g>
	</g>
	<polygon class="st10" points="325.2,231.2 326.1,234 328.2,235.7 326.7,236.4 327,238.9 325.2,236.6 323.3,236.4 323.7,234.3 
		322.2,231.6 324.3,232.7 	"/>
	<polygon class="st10" points="332.9,235.6 333.8,238.4 335.8,240.1 334.3,240.8 334.7,243.3 332.8,241 331,240.8 331.4,238.7 
		329.9,236 331.9,237.1 	"/>
	<polygon class="st6" points="340.5,240 341.4,242.8 343.5,244.6 342,245.2 342.3,247.8 340.5,245.4 338.6,245.2 339,243.1 
		337.5,240.4 339.6,241.5 	"/>
	<polygon class="st6" points="348.2,244.4 349.1,247.2 351.1,249 349.6,249.6 350,252.2 348.2,249.8 346.3,249.6 346.7,247.5 
		345.2,244.9 347.2,245.9 	"/>
	<polygon class="st6" points="355.8,248.9 356.7,251.6 358.8,253.4 357.3,254 357.7,256.6 355.8,254.2 354,254 354.3,251.9 
		352.8,249.3 354.9,250.3 	"/>
	<polygon class="st6" points="322.1,254.5 322.1,255.6 369.5,282.9 369.5,281.8 	"/>
	<polygon class="st6" points="322.1,257.9 322.1,259 369.5,286.3 369.5,285.3 	"/>
	<polygon class="st6" points="322.1,261.4 322.1,262.4 369.5,289.8 369.5,288.7 	"/>
	<polygon class="st6" points="322.1,264.8 322.1,265.9 369.5,293.2 369.5,292.1 	"/>
	<polygon class="st6" points="322.1,268.2 322.1,269.3 369.5,296.7 369.5,295.6 	"/>
	<polygon class="st6" points="322.1,271.7 322.1,272.7 369.5,300.1 369.5,299 	"/>
	<polygon class="st6" points="322.1,275.1 322.1,276.2 337.5,285 337.5,284 	"/>
	<polygon class="st14" points="322.1,248.1 322.1,251 340.1,261.4 340.1,258.5 	"/>
	<path class="st6" d="M294,248.1c0-7.5,5.3-10.6,11.8-6.8s11.9,13,11.9,20.5c0,7.5-5.3,10.6-11.9,6.8S294,255.6,294,248.1z"/>
	<g>
		<g>
			<defs>
				<path id="SVGID_11_" d="M294,248.1c0-7.5,5.3-10.6,11.8-6.8s11.9,13,11.9,20.5c0,7.5-5.3,10.6-11.9,6.8S294,255.6,294,248.1z"/>
			</defs>
			<clipPath id="SVGID_12_">
				<use xlink:href="#SVGID_11_"  style="overflow:visible;"/>
			</clipPath>
			<g class="st17">
				<path class="st8" d="M306.1,259.6c3,1.8,5.5,0.3,5.5-3.2c-0.2-3.9-2.3-7.4-5.5-9.6c-3-1.8-5.5-0.3-5.5,3.2
					C300.8,253.9,302.8,257.5,306.1,259.6z"/>
				<path class="st9" d="M308.5,251.4c-0.9,1.5-4,1.1-6,0c-0.7-0.4-1.4-1-2-1.6c0.1-3.3,2.5-4.7,5.5-2.9c2.8,1.9,4.8,4.8,5.4,8.1
					l-0.5-0.3C309.6,254.1,308.8,252.8,308.5,251.4z"/>
				<polygon class="st8" points="308.4,258.4 308.4,263.5 304.5,261.2 304.5,256.1 				"/>
				<path class="st9" d="M297.2,263.4c0.2-0.6,0.4-1.1,0.7-1.6c0.4-0.6,0.8-1.1,1.4-1.5c0.9-0.5,2-0.7,3-0.6l1.2,0.2h0.2
					c0.2,0.1,0.5,0.1,0.7,0.2l3.6,1.9c4.1,2.2,6.7,6.5,6.8,11.2l0.1,3.9l-18.4-10C296.6,265.9,296.8,264.7,297.2,263.4z"/>
			</g>
		</g>
	</g>
	<polygon class="st10" points="325.2,281.8 326.1,284.5 328.2,286.3 326.7,286.9 327,289.5 325.2,287.1 323.3,286.9 323.7,284.8 
		322.2,282.2 324.3,283.2 	"/>
	<polygon class="st10" points="332.9,286.2 333.8,288.9 335.8,290.7 334.3,291.3 334.7,293.9 332.8,291.5 331,291.4 331.4,289.3 
		329.9,286.6 331.9,287.7 	"/>
	<polygon class="st10" points="340.5,290.6 341.4,293.3 343.5,295.1 342,295.7 342.3,298.3 340.5,295.9 338.6,295.8 339,293.7 
		337.5,291 339.6,292.1 	"/>
	<polygon class="st6" points="348.2,295 349.1,297.8 351.1,299.5 349.6,300.1 350,302.7 348.2,300.4 346.3,300.2 346.7,298.1 
		345.2,295.4 347.2,296.5 	"/>
	<polygon class="st6" points="355.8,299.4 356.7,302.2 358.8,303.9 357.3,304.6 357.7,307.1 355.8,304.8 354,304.6 354.3,302.5 
		352.8,299.8 354.9,300.9 	"/>
	<path class="st13" d="M221.2,159.5c0.3-17.1,14.3-41.1,33.6-38.6l100.6,56.6l-34,37.2C321.5,214.7,221.1,162.4,221.2,159.5z"/>
	<path class="st8" d="M308.5,353l-0.3,0.2L221,303.7c-0.6,6.3-5.1,13.9-10.4,16.9c-1.5,0.9-3.2,1.4-4.9,1.4l92.2,49.1
		c0,6.7,4.7,9.4,10.5,6s10.5-11.5,10.5-18.1S314.3,349.7,308.5,353z"/>
	<polygon class="st13" points="221.2,159.5 221.1,303.7 318.8,360 319.1,213.3 	"/>
	<path class="st18" d="M479.5,96.6c-1.4-0.5-3-0.7-4.5-0.5c-2.5,0.4-5,1.2-7.3,2.4c-13.1,6.4-21.4,22.9-22.5,32.5
		c-0.1,0.6-0.1,1.4-0.1,2.3c0,0.1,0,0.2,0,0.3c-0.1,3.5,0,8.2,0,8.2l0,0v6.9l42.2,24.1l0.1-54.3l0,0
		C489.1,102.9,483.7,98.1,479.5,96.6z"/>
	<path class="st18" d="M362.3,340.4l-0.1-0.2c-0.5-0.7-0.8-1.6-1-2.4c-0.1-0.4-0.1-0.8-0.1-1.2c0-1.5,0-3,0.2-4.5l0,0v-72v-8.3
		v-53.5l0,0c1.8-15.6-3.6-20.5-7.8-21.9c-1.4-0.5-3-0.7-4.5-0.5c-0.7,0.1-1.4,0.3-2,0.4c-1.8,0.5-3.6,1.1-5.3,1.9
		c-6.4,3.1-11.6,8.6-15.4,14.6c-4,6.3-6.5,13-7.1,18c-0.1,0.6-0.1,1.6-0.2,2.7l0,0v0.4c-0.1,3.4,0,7.8,0,7.8l0,0l-0.2,85.9v8.4
		l45.2,26.2C363.4,341.7,362.8,341.1,362.3,340.4z"/>
	<path class="st18" d="M425.3,296.5l-0.1-0.2c-0.4-0.6-0.7-1.3-0.9-2.1v-0.1l0.1-131.7l0,0c1.8-15.6-3.6-20.5-7.8-21.9
		c-1.4-0.5-3-0.7-4.5-0.5c-2.5,0.4-5,1.2-7.3,2.4c-13.1,6.4-21.4,22.9-22.5,32.6c-0.1,0.6-0.1,1.4-0.1,2.3c0,0.1,0,0.2,0,0.3
		c-0.1,3.5,0,8.2,0,8.2l0,0l-0.1,78v8.4l45.1,26.2C426.4,297.8,425.7,297.2,425.3,296.5z"/>
	<path class="st18" d="M299.3,376.3l-0.1-0.2c-0.7-1.1-1.1-2.3-1.1-3.6c0-1.5,0-3.1,0.2-4.6l-85.1-49.1l-12.9-7.4l-0.1,3.5
		c0.1,1.1,0.3,2.2,0.6,3.3c0.5,1.2,1.2,2.2,2.3,3l98.1,56.9C300.4,377.6,299.8,377,299.3,376.3z"/>
	<polygon class="st6" points="257.8,238.3 257.8,239.4 305.2,266.7 305.2,265.7 	"/>
	<polygon class="st6" points="257.8,241.8 257.8,242.8 305.2,270.2 305.2,269.1 	"/>
	<polygon class="st6" points="257.8,245.2 257.8,246.3 305.2,273.6 305.2,272.5 	"/>
	<polygon class="st6" points="257.8,248.6 257.8,249.7 305.2,277.1 305.2,276 	"/>
	<polygon class="st6" points="257.8,252.1 257.8,253.1 305.2,280.5 305.2,279.4 	"/>
	<polygon class="st6" points="257.8,255.5 257.8,256.6 305.2,283.9 305.2,282.9 	"/>
	<polygon class="st6" points="257.8,259 257.8,260 273.1,268.9 273.1,267.8 	"/>
	<polygon class="st14" points="257.8,232 257.8,234.9 275.7,245.2 275.7,242.3 	"/>
	<path class="st6" d="M229.6,232c0-7.5,5.3-10.6,11.9-6.8s11.8,13,11.8,20.5s-5.3,10.6-11.8,6.8S229.6,239.5,229.6,232z"/>
	<g>
		<g>
			<defs>
				<path id="SVGID_13_" d="M229.6,232c0-7.5,5.3-10.6,11.9-6.8s11.8,13,11.8,20.5s-5.3,10.6-11.8,6.8S229.6,239.5,229.6,232z"/>
			</defs>
			<clipPath id="SVGID_14_">
				<use xlink:href="#SVGID_13_"  style="overflow:visible;"/>
			</clipPath>
			<g class="st19">
				<path class="st9" d="M240.5,231.3c0,0-8.1-4.9-4.8,12.4l12.3,7.1c0,0,3-15.9-3.7-18.3S240.5,231.3,240.5,231.3z"/>
				<path class="st8" d="M241.7,243.4c3.1,1.8,5.5,0.3,5.5-3.2c-0.2-3.9-2.3-7.4-5.5-9.6c-3-1.8-5.5-0.3-5.5,3.2
					C236.4,237.8,238.5,241.3,241.7,243.4z"/>
				<path class="st9" d="M244.1,235.2c-0.9,1.5-3.9,1.1-6,0c-0.7-0.4-1.4-1-2-1.6c0.1-3.3,2.6-4.7,5.5-3c2.6,1.5,5.3,4.4,5.4,8.1
					c0-0.2-0.3-0.2-0.5-0.3C245.3,237.9,244.4,236.6,244.1,235.2z"/>
				<polygon class="st8" points="244,242.3 244,247.3 240.1,245.1 240.1,240 				"/>
				<path class="st10" d="M232.8,247.3c0.2-0.6,0.4-1.1,0.7-1.6c0.4-0.6,0.8-1.1,1.4-1.5c0.9-0.5,2-0.7,3-0.6l1.2,0.2h0.2
					c0.2,0.1,0.5,0.2,0.7,0.3l3.6,1.9c4.1,2.2,6.7,6.5,6.8,11.2l0.1,3.9l-18.4-10C232.2,249.7,232.5,248.5,232.8,247.3z"/>
			</g>
		</g>
	</g>
	<polygon class="st10" points="260.8,266.1 261.7,268.8 263.8,270.6 262.3,271.2 262.6,273.8 260.8,271.4 259,271.2 259.3,269.1 
		257.8,266.5 259.9,267.5 	"/>
	<polygon class="st10" points="268.5,270.5 269.4,273.2 271.5,275 270,275.6 270.3,278.2 268.5,275.8 266.6,275.6 267,273.6 
		265.5,270.9 267.5,272 	"/>
	<polygon class="st6" points="276.1,274.9 277,277.6 279.1,279.4 277.6,280 278,282.6 276.1,280.2 274.3,280.1 274.6,278 
		273.1,275.3 275.2,276.4 	"/>
	<polygon class="st6" points="283.8,279.3 284.7,282.1 286.8,283.8 285.3,284.5 285.6,287 283.8,284.6 281.9,284.5 282.3,282.4 
		280.8,279.7 282.9,280.8 	"/>
	<polygon class="st6" points="291.5,283.7 292.4,286.5 294.4,288.2 292.9,288.9 293.3,291.4 291.4,289.1 289.6,288.9 290,286.8 
		288.5,284.1 290.5,285.2 	"/>
	<polygon class="st6" points="257.8,289.3 257.8,290.4 305.2,317.8 305.2,316.7 	"/>
	<polygon class="st6" points="257.8,292.8 257.8,293.8 305.2,321.2 305.2,320.1 	"/>
	<polygon class="st6" points="257.8,296.2 257.8,297.3 305.2,324.6 305.2,323.6 	"/>
	<polygon class="st6" points="257.8,299.7 257.8,300.7 305.2,328.1 305.2,327 	"/>
	<polygon class="st6" points="257.8,303.1 257.8,304.2 305.2,331.5 305.2,330.5 	"/>
	<polygon class="st6" points="257.8,306.5 257.8,307.6 305.2,335 305.2,333.9 	"/>
	<polygon class="st6" points="257.8,310 257.8,311 273.1,319.9 273.1,318.8 	"/>
	<polygon class="st14" points="257.8,283 257.8,285.9 275.7,296.2 275.7,293.4 	"/>
	<path class="st6" d="M229.6,283c0-7.5,5.3-10.6,11.9-6.8s11.8,13,11.8,20.5s-5.3,10.6-11.8,6.8S229.6,290.5,229.6,283z"/>
	<g>
		<g>
			<defs>
				<path id="SVGID_15_" d="M229.6,283c0-7.5,5.3-10.6,11.9-6.8s11.8,13,11.8,20.5s-5.3,10.6-11.8,6.8S229.6,290.5,229.6,283z"/>
			</defs>
			<clipPath id="SVGID_16_">
				<use xlink:href="#SVGID_15_"  style="overflow:visible;"/>
			</clipPath>
			<g class="st20">
				<path class="st8" d="M241.7,294.5c3.1,1.8,5.5,0.3,5.5-3.2c-0.2-3.9-2.3-7.4-5.5-9.6c-3-1.8-5.5-0.3-5.5,3.2
					C236.4,288.8,238.5,292.3,241.7,294.5z"/>
				<path class="st9" d="M244.1,286.3c-0.9,1.5-3.9,1.1-6,0c-0.7-0.4-1.4-1-2-1.6c0.1-3.3,2.6-4.7,5.5-3c2.8,1.9,4.8,4.8,5.4,8.1
					l-0.5-0.3C245.3,288.9,244.4,287.7,244.1,286.3z"/>
				<polygon class="st8" points="244,293.3 244,298.4 240.1,296.1 240.1,291 				"/>
				<path class="st9" d="M232.8,298.3c0.2-0.6,0.4-1.1,0.7-1.6c0.4-0.6,0.8-1.1,1.4-1.5c0.9-0.5,2-0.7,3-0.6l1.2,0.2h0.2
					c0.2,0.1,0.5,0.2,0.7,0.3l3.6,1.9c4.1,2.2,6.7,6.5,6.8,11.2l0.1,3.9l-18.4-10C232.2,300.7,232.5,299.5,232.8,298.3z"/>
			</g>
		</g>
	</g>
	<polygon class="st10" points="260.8,316.6 261.7,319.4 263.8,321.1 262.3,321.8 262.6,324.3 260.8,322 259,321.8 259.3,319.7 
		257.8,317 259.9,318.1 	"/>
	<polygon class="st10" points="268.5,321 269.4,323.8 271.5,325.5 270,326.2 270.3,328.8 268.5,326.4 266.6,326.2 267,324.1 
		265.5,321.4 267.5,322.5 	"/>
	<polygon class="st10" points="276.1,325.4 277,328.2 279.1,330 277.6,330.6 278,333.2 276.1,330.8 274.3,330.6 274.6,328.5 
		273.1,325.9 275.2,326.9 	"/>
	<polygon class="st6" points="283.8,329.9 284.7,332.6 286.8,334.4 285.3,335 285.6,337.6 283.8,335.2 281.9,335 282.3,332.9 
		280.8,330.3 282.9,331.3 	"/>
	<polygon class="st6" points="291.5,334.3 292.4,337 294.4,338.8 292.9,339.4 293.3,342 291.4,339.6 289.6,339.5 290,337.4 
		288.5,334.7 290.5,335.8 	"/>
	<polygon class="st6" points="257.8,184.7 257.8,185.8 305.2,213.1 305.2,212.1 	"/>
	<polygon class="st6" points="257.8,188.1 257.8,189.2 305.2,216.6 305.2,215.5 	"/>
	<polygon class="st6" points="257.8,191.6 257.8,192.6 305.2,220 305.2,218.9 	"/>
	<polygon class="st6" points="257.8,195 257.8,196.1 305.2,223.4 305.2,222.4 	"/>
	<polygon class="st6" points="257.8,198.5 257.8,199.5 305.2,226.9 305.2,225.8 	"/>
	<polygon class="st6" points="257.8,201.9 257.8,203 305.2,230.3 305.2,229.3 	"/>
	<polygon class="st6" points="257.8,205.3 257.8,206.4 273.1,215.3 273.1,214.2 	"/>
	<polygon class="st14" points="257.8,178.4 257.8,181.2 275.7,191.6 275.7,188.7 	"/>
	<path class="st6" d="M229.6,178.4c0-7.5,5.3-10.6,11.9-6.8s11.8,13,11.8,20.5s-5.3,10.6-11.8,6.8S229.6,185.9,229.6,178.4z"/>
	<g>
		<g>
			<defs>
				<path id="SVGID_17_" d="M229.6,178.4c0-7.5,5.3-10.6,11.9-6.8s11.8,13,11.8,20.5s-5.3,10.6-11.8,6.8S229.6,185.9,229.6,178.4z"
					/>
			</defs>
			<clipPath id="SVGID_18_">
				<use xlink:href="#SVGID_17_"  style="overflow:visible;"/>
			</clipPath>
			<g class="st21">
				<path class="st8" d="M241.7,189.8c3.1,1.8,5.5,0.3,5.5-3.2c-0.2-3.9-2.3-7.4-5.5-9.6c-3-1.8-5.5-0.3-5.5,3.2
					C236.4,184.2,238.5,187.7,241.7,189.8z"/>
				<path class="st9" d="M244.1,181.6c-0.9,1.5-3.9,1.1-6,0c-0.7-0.4-1.4-1-2-1.6c0.1-3.3,2.6-4.7,5.5-2.9c2.8,1.9,4.8,4.8,5.4,8.1
					l-0.5-0.3C245.3,184.3,244.4,183,244.1,181.6z"/>
				<polygon class="st8" points="244,188.6 244,193.7 240.1,191.4 240.1,186.4 				"/>
				<path class="st9" d="M232.8,193.7c0.2-0.6,0.4-1.1,0.7-1.6c0.4-0.6,0.8-1.1,1.4-1.5c0.9-0.5,2-0.7,3-0.6c0.1,0,1.2,0.1,1.2,0.1
					l0.2,0.1c0.2,0.1,0.5,0.1,0.7,0.2l3.6,1.9c4.1,2.2,6.7,6.5,6.8,11.2l0.1,3.9l-18.4-10C232.2,196.1,232.5,194.9,232.8,193.7z"/>
			</g>
		</g>
	</g>
	<polygon class="st10" points="260.8,211 261.7,213.8 263.8,215.5 262.3,216.1 262.6,218.7 260.8,216.3 259,216.2 259.3,214.1 
		257.8,211.4 259.9,212.5 	"/>
	<polygon class="st10" points="268.5,215.4 269.4,218.2 271.5,219.9 270,220.6 270.3,223.1 268.5,220.8 266.6,220.6 267,218.5 
		265.5,215.8 267.5,216.9 	"/>
	<polygon class="st10" points="276.1,219.8 277,222.6 279.1,224.3 277.6,225 278,227.5 276.1,225.2 274.3,225 274.6,222.9 
		273.1,220.2 275.2,221.3 	"/>
	<polygon class="st10" points="283.8,224.2 284.7,227 286.8,228.8 285.3,229.4 285.6,231.9 283.8,229.6 281.9,229.4 282.3,227.3 
		280.8,224.6 282.9,225.7 	"/>
	<polygon class="st10" points="291.5,228.6 292.4,231.4 294.4,233.2 292.9,233.8 293.3,236.4 291.4,234 289.6,233.8 290,231.7 
		288.5,229.1 290.5,230.1 	"/>
	<polygon class="st9" points="240.4,185.9 240.4,186.6 242.6,187.8 242.5,187 	"/>
	<path class="st22" d="M66.9,318.2c17.1,9.9,45.1,9.9,62.2,0s17.1-26,0-35.8s-45.1-9.9-62.2,0S49.8,308.4,66.9,318.2z M72.8,285.2
		c13.8-8,36.5-8,50.3,0s13.8,21,0,29s-36.4,8-50.3,0S59,293.2,72.8,285.2L72.8,285.2z"/>
	<path class="st23" d="M66.9,320.2c17.1,9.9,45.1,9.9,62.2,0s17.1-26,0-35.8s-45.1-9.9-62.2,0S49.8,310.4,66.9,320.2z M72.8,287.2
		c13.8-8,36.5-8,50.3,0s13.8,21,0,29s-36.4,8-50.3,0S59,295.2,72.8,287.2L72.8,287.2z"/>
	<path class="st24" d="M72.8,311c13.8,8,36.5,8,50.3,0s13.8-21,0-29s-36.4-8-50.3,0S59,303,72.8,311z"/>
	<path class="st25" d="M46.6,331.6c1.5,0.9,2.8,0.2,2.8-1.6c-0.1-2-1.2-3.8-2.8-4.9c-1.5-0.9-2.8-0.2-2.8,1.6
		C44,328.8,45,330.6,46.6,331.6z"/>
	<path class="st23" d="M65.5,320.9c1.6,0.9,2.8,0.2,2.8-1.6c-0.1-2-1.2-3.8-2.8-4.9c-1.5-0.9-2.8-0.2-2.8,1.6
		C62.8,318,63.8,319.8,65.5,320.9z"/>
	<polyline class="st23" points="67.7,321 48.5,332 48.5,327.2 44.5,325.1 63.6,314.1 	"/>
	<path class="st26" d="M46.5,333.3c2.4,1.4,4.4,0.3,4.4-2.5c-0.2-3.1-1.8-5.9-4.4-7.6c-2.4-1.4-4.4-0.3-4.4,2.5
		C42.2,328.8,43.9,331.6,46.5,333.3z"/>
	<polyline class="st26" points="49.8,333.5 15.1,353.5 15.1,346 8.8,342.7 43.4,322.7 	"/>
	<path class="st23" d="M12.2,353c2.4,1.4,4.4,0.3,4.4-2.5c-0.2-3.1-1.8-5.9-4.4-7.6c-2.4-1.4-4.4-0.3-4.4,2.5
		C8,348.5,9.6,351.3,12.2,353z"/>
	<polygon class="st22" points="141.9,302.6 141.9,296.9 137.1,302 	"/>
	<path class="st27" d="M66.9,315c17.1,9.9,45.1,9.9,62.1,0s17.1-26,0-35.8s-45.1-9.9-62.2,0S49.8,305.1,66.9,315z M72.8,282
		c13.8-8,36.5-8,50.3,0s13.8,21,0,29s-36.4,8-50.3,0S59,290,72.8,282z"/>
	<path class="st28" d="M138.9,245.7l-1.3,81.7c0,1.5,0.7,2.8,2,3.6l89.6,52.8c1.9,1.1,4.4,0.5,5.5-1.4c0.4-0.6,0.6-1.3,0.6-2
		l1.3-80.8c0-1.5-0.7-2.8-2-3.5L145,242.3c-1.9-1.2-4.3-0.6-5.5,1.2C139.1,244.2,138.8,244.9,138.9,245.7z"/>
	<path class="st9" d="M137.1,246.7l-1.3,81.7c0,1.5,0.7,2.8,2,3.6l89.7,52.8c1.9,1.2,4.3,0.6,5.5-1.3c0.4-0.6,0.6-1.4,0.6-2.1
		l1.3-80.8c0-1.5-0.7-2.8-2-3.5l-89.6-53.7c-1.9-1.1-4.4-0.5-5.5,1.4C137.3,245.3,137.1,246,137.1,246.7z"/>
	<path class="st29" d="M138.2,249.1l-1.3,78.8c0,1.4,0.7,2.7,1.9,3.4l86.4,51c1.9,1.1,4.3,0.5,5.4-1.4c0.3-0.6,0.5-1.2,0.5-1.9
		l1.3-77.9c0-1.4-0.7-2.7-1.9-3.4l-86.4-51.8c-1.9-1.1-4.3-0.5-5.4,1.4C138.4,247.8,138.2,248.5,138.2,249.1z"/>
	<path class="st9" d="M63.7,374l70.6-41.1c1.3-0.7,2.8-0.7,4.1,0l90,52.3c1.9,1.1,2.6,3.5,1.6,5.4c-0.4,0.7-0.9,1.2-1.6,1.6
		l-69.8,40.7c-1.2,0.7-2.8,0.7-4,0L63.7,381c-1.9-1.1-2.6-3.6-1.5-5.5C62.6,374.9,63.1,374.4,63.7,374z"/>
	<path class="st27" d="M63.7,371.9l70.6-41.1c1.3-0.7,2.8-0.7,4.1,0l90,52.3c1.9,1.1,2.6,3.6,1.4,5.6c-0.4,0.6-0.8,1.1-1.4,1.4
		l-69.8,40.7c-1.3,0.7-2.8,0.7-4.1,0L63.7,379c-1.9-1.1-2.6-3.6-1.5-5.5C62.6,372.8,63.1,372.3,63.7,371.9z"/>
	<path class="st23" d="M96.6,390.1l22.8-13.3c0.4-0.2,0.9-0.2,1.3,0l29.1,16.9c0.6,0.4,0.8,1.2,0.5,1.8c-0.1,0.2-0.3,0.4-0.5,0.5
		l-22.6,13.2c-0.4,0.2-0.9,0.2-1.3,0l-29.3-16.8c-0.6-0.4-0.8-1.1-0.5-1.8C96.2,390.4,96.4,390.2,96.6,390.1z"/>
	<polygon class="st23" points="129.7,338.9 127.8,340 212.9,389.1 214.9,388 	"/>
	<polygon class="st23" points="125.6,341.2 123.7,342.4 208.7,391.5 210.8,390.3 	"/>
	<polygon class="st23" points="121.4,343.6 119.5,344.8 204.6,393.9 206.6,392.7 	"/>
	<polygon class="st23" points="117.3,345.9 115.4,347.1 200.4,396.2 202.5,395 	"/>
	<polygon class="st23" points="113.2,348.3 111.3,349.5 196.3,398.5 198.4,397.4 	"/>
	<polygon class="st23" points="109.1,350.6 107.1,351.8 192.2,400.9 194.3,399.8 	"/>
	<polygon class="st10" points="145.3,347.8 143.4,349 145.3,350.1 147.4,349 	"/>
	<polygon class="st10" points="150.9,365.3 149,366.5 150.9,367.6 153,366.5 	"/>
	<polygon class="st10" points="184.4,375.1 182.4,376.3 184.3,377.4 186.4,376.3 	"/>
	<polygon class="st10" points="189.5,378 187.5,379.2 189.4,380.3 191.5,379.2 	"/>
	<polygon class="st10" points="131.9,344.9 130,346 134.2,348.5 136.3,347.3 	"/>
	<polygon class="st10" points="166,383.5 164.1,384.7 168.3,387.2 170.4,386 	"/>
	<polygon class="st6" points="174.8,299 174.8,300 222.2,327.4 222.2,326.3 	"/>
	<polygon class="st6" points="174.8,302.4 174.8,303.5 222.2,330.9 222.2,329.8 	"/>
	<polygon class="st6" points="174.8,305.9 174.8,306.9 222.2,334.3 222.2,333.2 	"/>
	<polygon class="st6" points="174.8,309.3 174.8,310.4 222.2,337.7 222.2,336.7 	"/>
	<polygon class="st6" points="174.8,312.7 174.8,313.8 222.2,341.2 222.2,340.1 	"/>
	<polygon class="st6" points="174.8,316.2 174.8,317.3 222.2,344.6 222.2,343.5 	"/>
	<polygon class="st6" points="174.8,319.6 174.8,320.7 190.1,329.5 190.1,328.5 	"/>
	<polygon class="st14" points="174.8,292.6 174.8,295.5 192.7,305.9 192.7,303 	"/>
	<path class="st6" d="M146.6,292.6c0-7.5,5.3-10.6,11.9-6.8s11.9,13,11.9,20.5s-5.3,10.6-11.9,6.8S146.6,300.1,146.6,292.6z"/>
	<g>
		<g>
			<defs>
				<path id="SVGID_19_" d="M146.6,292.6c0-7.5,5.3-10.6,11.9-6.8s11.9,13,11.9,20.5s-5.3,10.6-11.9,6.8S146.6,300.1,146.6,292.6z"
					/>
			</defs>
			<clipPath id="SVGID_20_">
				<use xlink:href="#SVGID_19_"  style="overflow:visible;"/>
			</clipPath>
			<g class="st30">
				<path class="st8" d="M158.7,304.1c3,1.8,5.5,0.3,5.5-3.2c-0.2-3.9-2.3-7.4-5.5-9.6c-3-1.8-5.5-0.3-5.5,3.2
					C153.4,298.4,155.5,302,158.7,304.1z"/>
				<path class="st9" d="M161.2,295.9c-0.9,1.5-3.9,1.1-6,0c-0.7-0.4-1.4-1-2-1.6c0.1-3.3,2.6-4.7,5.5-3c2.8,1.9,4.8,4.8,5.4,8.1
					l-0.5-0.3C162.3,298.5,161.4,297.3,161.2,295.9z"/>
				<polygon class="st8" points="161,302.9 161,308 157.1,305.7 157.1,300.6 				"/>
				<path class="st9" d="M149.8,307.9c0.2-0.6,0.4-1.1,0.7-1.6c0.3-0.6,0.8-1.1,1.4-1.5c0.9-0.5,2-0.7,3-0.6c0.1,0,1.2,0.1,1.2,0.1
					h0.2c0.2,0.1,0.5,0.1,0.7,0.2l3.6,1.9c4.1,2.2,6.7,6.5,6.8,11.2l0.1,3.9l-18.4-10C149.2,310.4,149.5,309.2,149.8,307.9z"/>
			</g>
		</g>
	</g>
	<polygon class="st10" points="177.8,326.3 178.7,329 180.8,330.8 179.3,331.4 179.7,334 177.8,331.6 176,331.4 176.3,329.4 
		174.8,326.7 176.9,327.8 	"/>
	<polygon class="st10" points="185.5,330.7 186.4,333.4 188.5,335.2 187,335.8 187.3,338.4 185.5,336 183.6,335.9 184,333.8 
		182.5,331.1 184.6,332.2 	"/>
	<polygon class="st10" points="193.1,335.1 194.1,337.9 196.1,339.6 194.6,340.2 195,342.8 193.1,340.4 191.3,340.3 191.6,338.2 
		190.1,335.5 192.2,336.6 	"/>
	<polygon class="st6" points="200.8,339.5 201.7,342.3 203.8,344 202.3,344.6 202.6,347.2 200.8,344.9 198.9,344.7 199.3,342.6 
		197.8,339.9 199.9,341 	"/>
	<polygon class="st6" points="208.5,343.9 209.4,346.7 211.4,348.4 209.9,349.1 210.3,351.6 208.4,349.3 206.6,349.1 207,347 
		205.5,344.3 207.5,345.4 	"/>
</g>
</svg>
